<svg width="60" height="52" viewBox="0 0 60 52" fill="none" xmlns="http://www.w3.org/2000/svg">
<path d="M36.228 9.94269C37.943 9.94269 39.3333 8.55242 39.3333 6.83743C39.3333 5.12245 37.943 3.73218 36.228 3.73218C34.513 3.73218 33.1227 5.12245 33.1227 6.83743C33.1227 8.55242 34.513 9.94269 36.228 9.94269Z" fill="#27C5A7"/>
<path d="M44.5087 51.346H40.5676C40.1337 51.3461 39.704 51.2606 39.303 51.0945C38.9021 50.9285 38.5378 50.6851 38.231 50.3782C37.9241 50.0714 37.6807 49.7071 37.5146 49.3062C37.3486 48.9053 37.2631 48.4756 37.2631 48.0417C37.2631 47.471 37.4109 46.9101 37.692 46.4135C37.9732 45.917 38.3781 45.5017 38.8675 45.2081L43.4736 42.4385L46.5789 47.2057L44.5087 51.346Z" fill="#015078"/>
<path d="M0 37.8899L3.63574 37.1629C4.64944 36.9601 5.60486 36.5329 6.43189 35.9126L9.31577 33.7496L10.2779 33.1227L11.3859 36.8548L9.0918 38.5756C7.89339 39.4743 6.43583 39.9601 4.93788 39.9601C4.02871 39.9601 3.12845 39.781 2.28849 39.4331C1.44853 39.0852 0.685318 38.5752 0.0424384 37.9323L0 37.8899Z" fill="#D18D28"/>
<path d="M11.4186 29.21C12.0807 28.1065 12.9508 27.1421 13.9804 26.3701C15.6852 25.0914 17.1257 23.4941 18.2222 21.6668L18.819 20.6721C19.3739 19.7468 19.6669 18.6882 19.6666 17.6094V13.0479L22.7719 9.94263L26.3947 10.8483L28.9824 9.94263L31.0526 13.0479L27.171 16.1531L27.9473 21.3286L28.1968 21.9108C28.7853 23.2837 28.8361 24.8277 28.3391 26.2363L28.3359 26.2454L32.3398 28.1931C32.5877 28.3137 32.809 28.4826 32.9907 28.6898C33.1724 28.8971 33.3109 29.1385 33.3981 29.4L35.1929 34.7847L32.0877 35.8198L30.0175 31.6794L25.8772 30.6443L19.6666 33.7496L17.5965 36.8549L19.1294 39.9213C19.2926 40.2477 19.3666 40.6115 19.3438 40.9757C19.3211 41.34 19.2025 41.6917 19 41.9953L17.5965 44.1004L16.5614 51.3461H13.4561V42.0303L11.8168 40.3911C10.8634 39.4376 10.2317 38.2101 10.0101 36.8801L9.98768 36.7455C9.55418 34.1434 10.0614 31.472 11.4186 29.21Z" fill="#EA9D2D"/>
<path d="M21.9464 17.075C21.7608 17.3233 21.5207 17.5257 21.2446 17.6666C20.9684 17.8074 20.6636 17.883 20.3537 17.8875L19.721 17.8979L19.6731 13.042L20.8829 11.8323L22.1987 15.0747C22.3336 15.4014 22.3812 15.7575 22.337 16.1082C22.2928 16.4589 22.1582 16.792 21.9464 17.075Z" fill="#EA9D2D"/>
<path d="M35.1929 9.94268L38.2982 8.90759L41.4034 19.2584L47.6139 23.3988L44.5087 26.504L37.2631 21.3286L36.228 14.083L35.1929 13.0479V9.94268Z" fill="#FDC9A6"/>
<path d="M59.7762 40.9953L58.4476 31.4714C58.1266 29.5456 57.599 27.66 56.8739 25.8473L56.8706 25.8389C56.5825 25.1186 56.0852 24.5012 55.4428 24.0662C54.8004 23.6313 54.0424 23.3988 53.2667 23.3988H47.6139L44.5087 26.5041L47.6139 28.5742V35.8198L59.7762 40.9953Z" fill="#02A437"/>
<path d="M42.5232 41.6128L44.8537 47.2058H51.7543L50.7192 45.5438L53.0648 46.4854C54.2357 46.9554 55.5184 47.0728 56.7552 46.8231C57.544 46.6639 58.2683 46.2754 58.8374 45.7063C58.8799 45.6638 58.9214 45.6204 58.962 45.576C59.3626 45.1277 59.6593 44.5963 59.8307 44.02C60.0021 43.4436 60.044 42.8365 59.9534 42.242L59.7762 40.9953L48.2493 35.9443C47.4506 35.6019 46.5676 35.5068 45.7143 35.6711C44.861 35.8355 44.0765 36.2518 43.4621 36.8663C42.8529 37.4754 42.4385 38.2518 42.2713 39.0969C42.1042 39.942 42.1919 40.8177 42.5232 41.6128Z" fill="#026CA2"/>
<path d="M55.8946 29.6093V25.469C55.8946 24.9199 55.6765 24.3934 55.2883 24.0051C54.9 23.6169 54.3735 23.3988 53.8244 23.3988C53.2754 23.3988 52.7488 23.6169 52.3606 24.0051C51.9724 24.3934 51.7543 24.9199 51.7543 25.469V29.6093H55.8946Z" fill="#029532"/>
<path d="M51.7543 29.6093V34.7847H41.6622C41.0445 34.7847 40.4521 35.03 40.0154 35.4668C39.5786 35.9036 39.3333 36.4959 39.3333 37.1136V38.925H52.7894C53.6129 38.925 54.4028 38.5979 54.9851 38.0155C55.5675 37.4332 55.8946 36.6433 55.8946 35.8198V29.6093H51.7543Z" fill="#FDC9A6"/>
<path d="M47.614 14.5342H51.7543L53.8245 17.6394V18.2459C53.8245 19.1831 53.4521 20.082 52.7894 20.7447V23.3988H48.649V20.7447C47.9863 20.082 47.614 19.1831 47.614 18.2459V14.5342Z" fill="#FDC9A6"/>
<path d="M47.6139 14.5342L46.9768 12.6228C46.8573 12.2642 46.84 11.8793 46.9269 11.5114C47.0137 11.1435 47.2012 10.807 47.4685 10.5397C47.8014 10.2069 48.2393 9.99965 48.7077 9.95327C49.1761 9.90689 49.6462 10.0242 50.0378 10.2853L51.7543 11.429H52.9096C53.4774 11.429 54.0309 11.6077 54.4915 11.9398C54.9522 12.2718 55.2966 12.7404 55.4762 13.2792C55.6065 13.67 55.6458 14.0855 55.5911 14.4939C55.5364 14.9022 55.3892 15.2927 55.1606 15.6355L53.8244 17.6395L51.7543 14.5342H47.6139Z" fill="#55300B"/>
<path d="M24.3245 13.9536C24.8247 13.9536 25.2302 13.5481 25.2302 13.0479C25.2302 12.5477 24.8247 12.1422 24.3245 12.1422C23.8243 12.1422 23.4188 12.5477 23.4188 13.0479C23.4188 13.5481 23.8243 13.9536 24.3245 13.9536Z" fill="#C38325"/>
<path d="M21.9464 17.075C21.7608 17.3233 21.5207 17.5257 21.2446 17.6666C20.9684 17.8074 20.6636 17.883 20.3537 17.8875L19.721 17.8979L19.6731 13.042L20.8829 11.8323L22.1987 15.0747C22.3336 15.4014 22.3812 15.7575 22.337 16.1082C22.2928 16.4589 22.1582 16.792 21.9464 17.075Z" fill="#C38325"/>
<path d="M2.87821 45.395C2.18198 45.3951 1.48953 45.2926 0.823179 45.0909C0.691183 45.0531 0.568014 44.9895 0.460845 44.9037C0.353675 44.8179 0.264646 44.7116 0.19894 44.5911C0.133234 44.4705 0.0921643 44.3381 0.0781218 44.2015C0.0640794 44.065 0.0773449 43.927 0.117146 43.7956C0.156947 43.6642 0.222488 43.542 0.309954 43.4362C0.39742 43.3304 0.505063 43.243 0.626616 43.1792C0.748168 43.1154 0.881202 43.0764 1.01797 43.0645C1.15474 43.0526 1.29251 43.068 1.42327 43.1098C2.09304 43.3121 2.79758 43.3728 3.49207 43.288C4.18656 43.2032 4.85581 42.9748 5.45726 42.6174L6.19864 42.1761C6.31547 42.1053 6.44515 42.0584 6.58021 42.038C6.71527 42.0176 6.85302 42.0241 6.98554 42.0572C7.11806 42.0903 7.24273 42.1493 7.35234 42.2308C7.46196 42.3122 7.55436 42.4146 7.62423 42.532C7.6941 42.6494 7.74005 42.7794 7.75942 42.9146C7.7788 43.0498 7.77123 43.1875 7.73714 43.3198C7.70305 43.452 7.64313 43.5763 7.56081 43.6853C7.47849 43.7942 7.37542 43.8859 7.25753 43.9549L6.51628 44.3962C5.41553 45.0504 4.15868 45.3954 2.87821 45.395Z" fill="#6EE7F5"/>
<path d="M16.2724 13.695C15.9978 13.695 15.7346 13.5859 15.5404 13.3918C15.3463 13.1977 15.2373 12.9344 15.2373 12.6599C15.2362 10.9992 15.8509 9.39704 16.9625 8.16323L17.8854 7.13784C17.9755 7.03387 18.0854 6.94889 18.2087 6.88788C18.332 6.82687 18.4662 6.79105 18.6035 6.78251C18.7408 6.77398 18.8784 6.79289 19.0083 6.83816C19.1382 6.88342 19.2578 6.95413 19.3601 7.04614C19.4623 7.13815 19.5452 7.24963 19.6039 7.37405C19.6626 7.49847 19.6959 7.63334 19.7019 7.77078C19.7078 7.90821 19.6863 8.04546 19.6386 8.17449C19.5909 8.30352 19.518 8.42175 19.4241 8.52227L18.5022 9.54804C17.7328 10.4018 17.3074 11.5106 17.3081 12.6599C17.3081 12.7959 17.2813 12.9305 17.2292 13.0562C17.1772 13.1818 17.1009 13.2959 17.0047 13.392C16.9085 13.4882 16.7943 13.5644 16.6687 13.6164C16.543 13.6684 16.4083 13.6951 16.2724 13.695Z" fill="#6EE7F5"/>
<path d="M43.4745 4.01174C43.3034 4.01195 43.1349 3.9697 42.9841 3.88877C42.8334 3.80784 42.705 3.69075 42.6106 3.54802L42.5276 3.42264C42.2529 3.00642 41.8792 2.66493 41.4399 2.42886C41.0007 2.1928 40.5097 2.06954 40.011 2.07018C39.7365 2.07018 39.4732 1.96112 39.2791 1.76701C39.085 1.57289 38.9759 1.30961 38.9759 1.03509C38.9759 0.760568 39.085 0.49729 39.2791 0.303174C39.4732 0.109058 39.7365 4.37659e-06 40.011 4.37659e-06C40.8517 -0.00109956 41.6795 0.206652 42.4201 0.604598C43.1607 1.00254 43.7908 1.57822 44.2538 2.27991L44.3366 2.40503C44.4399 2.56094 44.499 2.74193 44.5077 2.92875C44.5163 3.11557 44.4742 3.30124 44.3858 3.46604C44.2974 3.63084 44.1659 3.7686 44.0055 3.86468C43.845 3.96077 43.6616 4.01159 43.4745 4.01174Z" fill="#6EE7F5"/>
<path d="M44.8538 47.2057L43.4736 49.2759V51.346H51.7543V47.2057H44.8538Z" fill="#CBCBCB"/>
<path d="M50.7192 45.5437L51.7543 47.2063H50.4837L46.7716 42.005C46.6926 41.8944 46.6362 41.7693 46.6055 41.6369C46.5748 41.5045 46.5706 41.3673 46.5929 41.2332C46.6153 41.0991 46.6638 40.9708 46.7358 40.8554C46.8077 40.7401 46.9017 40.6401 47.0123 40.5611C47.1229 40.4821 47.248 40.4256 47.3804 40.395C47.5129 40.3643 47.65 40.36 47.7841 40.3824C48.0549 40.4275 48.2967 40.5784 48.4562 40.8018L52.2899 46.1738L50.7192 45.5437Z" fill="#015078"/>
<path d="M39.3333 6.83805C39.3333 6.85617 39.3333 6.87428 39.332 6.89239C39.3227 6.89641 39.3132 6.89987 39.3035 6.90275C37.3781 7.54627 35.3612 7.87397 33.331 7.87314H33.3C33.0637 7.20332 33.0637 6.47279 33.3 5.80297H33.331C35.139 5.80313 36.9352 5.51128 38.6501 4.93867C38.659 4.93549 38.668 4.93289 38.6773 4.93091C39.1036 5.47507 39.3347 6.14676 39.3333 6.83805Z" fill="#2AD3B3"/>
<path d="M47.6139 23.3988V28.5742L44.5087 26.5041L47.6139 23.3988Z" fill="#029532"/>
</svg>
