<svg width="400" height="288" viewBox="0 0 400 288" fill="none" xmlns="http://www.w3.org/2000/svg">
<g clip-path="url(#clip0)">
<path d="M275.17 113.553H222.48V102.165C222.48 101.443 222.193 100.749 221.682 100.238C221.17 99.7268 220.477 99.4397 219.754 99.4397H204.282V87.3006C204.282 86.8455 204.101 86.4091 203.779 86.0873C203.457 85.7655 203.021 85.5847 202.566 85.5847H182.635C182.18 85.5847 181.744 85.7655 181.422 86.0873C181.1 86.4091 180.919 86.8455 180.919 87.3006V99.4397H162.729C162.006 99.4397 161.313 99.7268 160.802 100.238C160.29 100.749 160.003 101.443 160.003 102.165V113.553H109.76C109.614 113.554 109.474 113.613 109.371 113.717C109.268 113.821 109.21 113.961 109.21 114.107V265.4C109.21 265.546 109.268 265.686 109.371 265.79C109.474 265.894 109.614 265.953 109.76 265.954H143.152C143.224 265.954 143.296 265.939 143.364 265.912C143.431 265.884 143.492 265.843 143.543 265.791C143.595 265.74 143.636 265.679 143.664 265.612C143.691 265.544 143.706 265.472 143.706 265.4V245.046C143.707 244.899 143.766 244.759 143.869 244.655C143.973 244.552 144.113 244.493 144.26 244.492H158.365C158.512 244.493 158.652 244.552 158.756 244.655C158.86 244.759 158.918 244.899 158.92 245.046V265.4C158.92 265.546 158.977 265.686 159.08 265.79C159.183 265.894 159.323 265.953 159.47 265.954H225.452C225.599 265.953 225.739 265.894 225.843 265.79C225.947 265.687 226.005 265.546 226.006 265.4V245.046C226.006 244.9 226.064 244.759 226.167 244.656C226.27 244.552 226.41 244.493 226.556 244.492H240.662C240.809 244.492 240.95 244.55 241.054 244.654C241.158 244.758 241.216 244.899 241.216 245.046V265.4C241.217 265.546 241.276 265.687 241.379 265.79C241.483 265.894 241.624 265.953 241.77 265.954H275.162C275.308 265.953 275.449 265.894 275.552 265.79C275.656 265.687 275.715 265.546 275.716 265.4V114.116C275.717 113.969 275.66 113.828 275.558 113.723C275.456 113.617 275.317 113.556 275.17 113.553V113.553ZM137.729 237.423C137.729 237.569 137.671 237.709 137.567 237.812C137.464 237.915 137.324 237.973 137.179 237.973H116.554C116.482 237.973 116.41 237.96 116.342 237.932C116.275 237.905 116.214 237.864 116.162 237.813C116.111 237.762 116.07 237.701 116.042 237.634C116.014 237.567 116 237.495 116 237.423V230.378C116 230.231 116.058 230.09 116.162 229.986C116.266 229.882 116.407 229.824 116.554 229.824H137.191C137.337 229.825 137.477 229.884 137.58 229.988C137.683 230.092 137.741 230.232 137.741 230.378L137.729 237.423ZM137.729 219.22C137.729 219.293 137.715 219.365 137.688 219.432C137.661 219.499 137.62 219.561 137.569 219.612C137.518 219.664 137.457 219.704 137.39 219.732C137.323 219.76 137.251 219.775 137.179 219.775H116.554C116.481 219.775 116.409 219.761 116.341 219.734C116.274 219.706 116.213 219.665 116.161 219.614C116.109 219.562 116.069 219.501 116.041 219.433C116.013 219.366 115.999 219.293 116 219.22V212.18C115.999 212.107 116.013 212.035 116.041 211.967C116.069 211.9 116.109 211.839 116.161 211.787C116.213 211.735 116.274 211.695 116.341 211.667C116.409 211.639 116.481 211.625 116.554 211.626H137.191C137.263 211.626 137.335 211.64 137.402 211.668C137.469 211.696 137.53 211.737 137.581 211.788C137.632 211.84 137.673 211.901 137.7 211.968C137.728 212.036 137.741 212.107 137.741 212.18L137.729 219.22ZM137.729 201.022C137.729 201.168 137.671 201.309 137.568 201.413C137.465 201.516 137.325 201.575 137.179 201.576H116.554C116.407 201.576 116.266 201.518 116.162 201.414C116.058 201.31 116 201.169 116 201.022V193.978C116 193.831 116.058 193.69 116.162 193.586C116.266 193.482 116.407 193.424 116.554 193.424H137.191C137.337 193.425 137.477 193.483 137.58 193.587C137.683 193.691 137.741 193.831 137.741 193.978L137.729 201.022ZM137.729 182.82C137.729 182.892 137.715 182.964 137.688 183.032C137.661 183.099 137.62 183.16 137.569 183.211C137.518 183.263 137.457 183.304 137.39 183.332C137.323 183.36 137.251 183.374 137.179 183.374H116.554C116.481 183.375 116.409 183.361 116.341 183.333C116.274 183.305 116.213 183.265 116.161 183.213C116.109 183.161 116.069 183.1 116.041 183.033C116.013 182.965 115.999 182.893 116 182.82V175.779C115.999 175.707 116.013 175.634 116.041 175.567C116.069 175.499 116.109 175.438 116.161 175.386C116.213 175.335 116.274 175.294 116.341 175.266C116.409 175.239 116.481 175.225 116.554 175.225H137.191C137.263 175.225 137.335 175.24 137.402 175.268C137.469 175.295 137.53 175.336 137.581 175.388C137.632 175.439 137.673 175.5 137.7 175.568C137.728 175.635 137.741 175.707 137.741 175.779L137.729 182.82ZM137.729 164.622C137.729 164.768 137.671 164.908 137.568 165.012C137.465 165.116 137.325 165.175 137.179 165.176H116.554C116.481 165.176 116.409 165.161 116.342 165.134C116.275 165.106 116.214 165.065 116.162 165.013C116.111 164.962 116.07 164.901 116.042 164.834C116.014 164.766 116 164.694 116 164.622V157.577C116 157.505 116.014 157.433 116.042 157.366C116.07 157.299 116.111 157.238 116.162 157.187C116.214 157.136 116.275 157.095 116.342 157.068C116.41 157.04 116.482 157.026 116.554 157.027H137.191C137.337 157.027 137.477 157.085 137.58 157.188C137.683 157.291 137.741 157.431 137.741 157.577L137.729 164.622ZM137.729 146.423C137.729 146.569 137.671 146.709 137.567 146.812C137.464 146.916 137.324 146.973 137.179 146.973H116.554C116.482 146.974 116.41 146.96 116.342 146.933C116.275 146.905 116.214 146.865 116.162 146.814C116.111 146.763 116.07 146.702 116.042 146.635C116.014 146.568 116 146.496 116 146.423V139.379C116 139.232 116.058 139.091 116.162 138.987C116.266 138.883 116.407 138.825 116.554 138.825H137.191C137.337 138.826 137.477 138.885 137.58 138.988C137.683 139.092 137.741 139.233 137.741 139.379L137.729 146.423ZM137.729 128.221C137.729 128.294 137.715 128.366 137.688 128.433C137.661 128.5 137.62 128.561 137.569 128.613C137.518 128.664 137.457 128.705 137.39 128.733C137.323 128.761 137.251 128.775 137.179 128.775H116.554C116.481 128.776 116.409 128.762 116.341 128.734C116.274 128.706 116.213 128.666 116.161 128.614C116.109 128.563 116.069 128.501 116.041 128.434C116.013 128.366 115.999 128.294 116 128.221V121.181C115.999 121.108 116.013 121.035 116.041 120.968C116.069 120.9 116.109 120.839 116.161 120.788C116.213 120.736 116.274 120.695 116.341 120.668C116.409 120.64 116.481 120.626 116.554 120.626H137.191C137.263 120.626 137.335 120.641 137.402 120.669C137.469 120.697 137.53 120.738 137.581 120.789C137.632 120.841 137.673 120.902 137.7 120.969C137.728 121.036 137.741 121.108 137.741 121.181L137.729 128.221ZM186.625 237.419C186.625 237.491 186.611 237.563 186.583 237.63C186.555 237.697 186.514 237.758 186.463 237.809C186.411 237.86 186.35 237.901 186.283 237.928C186.216 237.955 186.144 237.969 186.071 237.969H165.447C165.3 237.969 165.16 237.911 165.056 237.808C164.953 237.705 164.894 237.565 164.893 237.419V230.378C164.894 230.232 164.952 230.091 165.056 229.988C165.16 229.884 165.3 229.825 165.447 229.824H186.071C186.218 229.824 186.359 229.882 186.463 229.986C186.567 230.09 186.625 230.231 186.625 230.378V237.419ZM186.625 219.216C186.626 219.289 186.612 219.362 186.584 219.429C186.557 219.497 186.516 219.558 186.464 219.609C186.413 219.661 186.351 219.702 186.284 219.729C186.216 219.757 186.144 219.771 186.071 219.771H165.447C165.374 219.771 165.302 219.756 165.235 219.728C165.167 219.7 165.106 219.66 165.055 219.608C165.003 219.557 164.963 219.496 164.935 219.428C164.907 219.361 164.893 219.289 164.893 219.216V212.18C164.893 212.033 164.951 211.892 165.055 211.788C165.159 211.684 165.3 211.626 165.447 211.626H186.071C186.144 211.625 186.216 211.639 186.284 211.667C186.351 211.695 186.413 211.735 186.464 211.787C186.516 211.839 186.557 211.9 186.584 211.967C186.612 212.035 186.626 212.107 186.625 212.18V219.216ZM186.625 201.018C186.625 201.165 186.567 201.306 186.463 201.41C186.359 201.514 186.218 201.572 186.071 201.572H165.447C165.3 201.571 165.16 201.512 165.056 201.409C164.952 201.305 164.894 201.165 164.893 201.018V193.978C164.894 193.831 164.952 193.691 165.056 193.587C165.16 193.483 165.3 193.425 165.447 193.424H186.071C186.218 193.424 186.359 193.482 186.463 193.586C186.567 193.69 186.625 193.831 186.625 193.978V201.018ZM186.625 182.816C186.626 182.889 186.612 182.961 186.584 183.028C186.557 183.096 186.516 183.157 186.464 183.209C186.413 183.26 186.351 183.301 186.284 183.329C186.216 183.357 186.144 183.37 186.071 183.37H165.447C165.3 183.37 165.159 183.312 165.055 183.208C164.951 183.104 164.893 182.963 164.893 182.816V175.779C164.893 175.633 164.951 175.492 165.055 175.388C165.159 175.284 165.3 175.225 165.447 175.225H186.071C186.144 175.225 186.216 175.239 186.284 175.266C186.351 175.294 186.413 175.335 186.464 175.386C186.516 175.438 186.557 175.499 186.584 175.567C186.612 175.634 186.626 175.707 186.625 175.779V182.816ZM186.625 164.618C186.625 164.764 186.567 164.905 186.463 165.009C186.359 165.113 186.218 165.172 186.071 165.172H165.447C165.3 165.171 165.16 165.112 165.056 165.008C164.952 164.904 164.894 164.764 164.893 164.618V157.577C164.894 157.431 164.953 157.291 165.056 157.188C165.16 157.085 165.3 157.027 165.447 157.027H186.071C186.144 157.026 186.216 157.04 186.283 157.068C186.35 157.095 186.411 157.136 186.463 157.187C186.514 157.238 186.555 157.299 186.583 157.366C186.611 157.433 186.625 157.505 186.625 157.577V164.618ZM186.625 146.419C186.625 146.492 186.611 146.564 186.583 146.631C186.555 146.698 186.514 146.759 186.463 146.81C186.411 146.861 186.35 146.901 186.283 146.929C186.216 146.956 186.144 146.97 186.071 146.969H165.447C165.3 146.969 165.16 146.912 165.056 146.809C164.953 146.705 164.894 146.566 164.893 146.419V139.379C164.894 139.232 164.952 139.092 165.056 138.988C165.16 138.885 165.3 138.826 165.447 138.825H186.071C186.218 138.825 186.359 138.883 186.463 138.987C186.567 139.091 186.625 139.232 186.625 139.379V146.419ZM186.625 128.217C186.626 128.29 186.612 128.362 186.584 128.43C186.557 128.497 186.516 128.558 186.464 128.61C186.413 128.662 186.351 128.702 186.284 128.73C186.216 128.758 186.144 128.772 186.071 128.771H165.447C165.374 128.771 165.302 128.757 165.235 128.729C165.167 128.701 165.106 128.66 165.055 128.609C165.003 128.557 164.963 128.496 164.935 128.429C164.907 128.362 164.893 128.29 164.893 128.217V121.181C164.893 121.034 164.951 120.893 165.055 120.789C165.159 120.685 165.3 120.626 165.447 120.626H186.071C186.144 120.626 186.216 120.64 186.284 120.668C186.351 120.695 186.413 120.736 186.464 120.788C186.516 120.839 186.557 120.9 186.584 120.968C186.612 121.035 186.626 121.108 186.625 121.181V128.217ZM220.037 237.415C220.037 237.487 220.023 237.559 219.995 237.626C219.967 237.693 219.926 237.754 219.875 237.805C219.823 237.856 219.762 237.897 219.695 237.924C219.628 237.951 219.556 237.965 219.483 237.965H198.859C198.712 237.965 198.572 237.907 198.468 237.804C198.365 237.701 198.306 237.561 198.305 237.415V230.378C198.306 230.232 198.364 230.091 198.468 229.988C198.572 229.884 198.712 229.825 198.859 229.824H219.483C219.63 229.824 219.771 229.882 219.875 229.986C219.979 230.09 220.037 230.231 220.037 230.378V237.415ZM220.037 219.212C220.038 219.285 220.024 219.357 219.996 219.425C219.969 219.492 219.928 219.554 219.876 219.605C219.825 219.657 219.763 219.698 219.696 219.725C219.628 219.753 219.556 219.767 219.483 219.766H198.859C198.786 219.766 198.714 219.752 198.647 219.724C198.579 219.696 198.518 219.656 198.467 219.604C198.415 219.553 198.375 219.492 198.347 219.424C198.319 219.357 198.305 219.285 198.305 219.212V212.18C198.305 212.107 198.319 212.035 198.347 211.968C198.375 211.901 198.415 211.84 198.467 211.788C198.518 211.737 198.579 211.696 198.647 211.668C198.714 211.64 198.786 211.626 198.859 211.626H219.483C219.556 211.625 219.628 211.639 219.696 211.667C219.763 211.695 219.825 211.735 219.876 211.787C219.928 211.839 219.969 211.9 219.996 211.967C220.024 212.035 220.038 212.107 220.037 212.18V219.212ZM220.037 201.014C220.037 201.087 220.023 201.159 219.995 201.226C219.967 201.293 219.927 201.354 219.875 201.406C219.824 201.457 219.762 201.498 219.695 201.526C219.628 201.554 219.556 201.568 219.483 201.568H198.859C198.712 201.567 198.572 201.508 198.468 201.405C198.364 201.301 198.306 201.161 198.305 201.014V193.978C198.306 193.831 198.364 193.691 198.468 193.587C198.572 193.483 198.712 193.425 198.859 193.424H219.483C219.63 193.424 219.771 193.482 219.875 193.586C219.979 193.69 220.037 193.831 220.037 193.978V201.014ZM220.037 182.812C220.038 182.885 220.024 182.957 219.996 183.024C219.969 183.092 219.928 183.153 219.876 183.205C219.825 183.256 219.763 183.297 219.696 183.325C219.628 183.352 219.556 183.366 219.483 183.366H198.859C198.786 183.366 198.714 183.351 198.647 183.324C198.579 183.296 198.518 183.255 198.467 183.204C198.415 183.152 198.375 183.091 198.347 183.024C198.319 182.956 198.305 182.884 198.305 182.812V175.779C198.305 175.707 198.319 175.635 198.347 175.567C198.375 175.5 198.415 175.439 198.467 175.388C198.518 175.336 198.579 175.295 198.647 175.267C198.714 175.24 198.786 175.225 198.859 175.225H219.483C219.556 175.225 219.628 175.239 219.696 175.266C219.763 175.294 219.825 175.335 219.876 175.386C219.928 175.438 219.969 175.499 219.996 175.567C220.024 175.634 220.038 175.707 220.037 175.779V182.812ZM220.037 164.613C220.037 164.76 219.979 164.901 219.875 165.005C219.771 165.109 219.63 165.168 219.483 165.168H198.859C198.712 165.167 198.572 165.108 198.468 165.004C198.364 164.9 198.306 164.76 198.305 164.613V157.577C198.306 157.431 198.365 157.291 198.468 157.188C198.572 157.085 198.712 157.027 198.859 157.027H219.483C219.556 157.026 219.628 157.04 219.695 157.068C219.762 157.095 219.823 157.136 219.875 157.187C219.926 157.238 219.967 157.299 219.995 157.366C220.023 157.433 220.037 157.505 220.037 157.577V164.613ZM220.037 146.415C220.037 146.488 220.023 146.56 219.995 146.627C219.967 146.694 219.926 146.754 219.875 146.806C219.823 146.857 219.762 146.897 219.695 146.925C219.628 146.952 219.556 146.966 219.483 146.965H198.859C198.712 146.965 198.572 146.907 198.468 146.804C198.365 146.701 198.306 146.561 198.305 146.415V139.379C198.306 139.232 198.364 139.092 198.468 138.988C198.572 138.885 198.712 138.826 198.859 138.825H219.483C219.63 138.825 219.771 138.883 219.875 138.987C219.979 139.091 220.037 139.232 220.037 139.379V146.415ZM220.037 128.213C220.038 128.286 220.024 128.358 219.996 128.426C219.969 128.493 219.928 128.554 219.876 128.606C219.825 128.657 219.763 128.698 219.696 128.726C219.628 128.754 219.556 128.768 219.483 128.767H198.859C198.786 128.767 198.714 128.753 198.647 128.725C198.579 128.697 198.518 128.656 198.467 128.605C198.415 128.553 198.375 128.492 198.347 128.425C198.319 128.358 198.305 128.286 198.305 128.213V121.181C198.305 121.108 198.319 121.036 198.347 120.969C198.375 120.901 198.415 120.84 198.467 120.789C198.518 120.737 198.579 120.696 198.647 120.669C198.714 120.641 198.786 120.626 198.859 120.626H219.483C219.556 120.626 219.628 120.64 219.696 120.668C219.763 120.695 219.825 120.736 219.876 120.788C219.928 120.839 219.969 120.9 219.996 120.968C220.024 121.035 220.038 121.108 220.037 121.181V128.213ZM268.934 237.41C268.933 237.557 268.874 237.697 268.77 237.8C268.667 237.903 268.526 237.961 268.38 237.961H247.756C247.683 237.961 247.611 237.947 247.544 237.92C247.477 237.892 247.415 237.852 247.364 237.801C247.312 237.75 247.271 237.689 247.244 237.622C247.216 237.555 247.201 237.483 247.201 237.41V230.378C247.201 230.231 247.26 230.09 247.364 229.986C247.468 229.882 247.609 229.824 247.756 229.824H268.38C268.527 229.825 268.667 229.884 268.771 229.988C268.874 230.091 268.933 230.232 268.934 230.378V237.41ZM268.934 219.208C268.934 219.355 268.876 219.496 268.772 219.6C268.668 219.704 268.527 219.762 268.38 219.762H247.756C247.612 219.761 247.474 219.704 247.372 219.603C247.27 219.501 247.212 219.364 247.21 219.22V212.18C247.209 212.107 247.223 212.035 247.251 211.967C247.278 211.9 247.319 211.839 247.371 211.787C247.422 211.735 247.484 211.695 247.551 211.667C247.618 211.639 247.691 211.625 247.764 211.626H268.388C268.535 211.626 268.676 211.684 268.78 211.788C268.884 211.892 268.942 212.033 268.942 212.18L268.934 219.208ZM268.934 201.01C268.933 201.157 268.874 201.297 268.771 201.401C268.667 201.504 268.527 201.563 268.38 201.564H247.756C247.609 201.564 247.468 201.506 247.364 201.402C247.26 201.298 247.201 201.157 247.201 201.01V193.978C247.201 193.831 247.26 193.69 247.364 193.586C247.468 193.482 247.609 193.424 247.756 193.424H268.38C268.527 193.425 268.667 193.483 268.771 193.587C268.874 193.691 268.933 193.831 268.934 193.978V201.01ZM268.934 182.808C268.934 182.955 268.876 183.095 268.772 183.199C268.668 183.303 268.527 183.362 268.38 183.362H247.756C247.683 183.362 247.61 183.348 247.543 183.321C247.475 183.293 247.414 183.252 247.362 183.201C247.311 183.149 247.27 183.088 247.242 183.02C247.215 182.953 247.201 182.88 247.201 182.808V175.779C247.201 175.707 247.215 175.634 247.242 175.567C247.27 175.499 247.311 175.438 247.362 175.386C247.414 175.335 247.475 175.294 247.543 175.266C247.61 175.239 247.683 175.225 247.756 175.225H268.38C268.527 175.225 268.668 175.284 268.772 175.388C268.876 175.492 268.934 175.633 268.934 175.779V182.808ZM268.934 164.609C268.933 164.756 268.874 164.896 268.771 165C268.667 165.104 268.527 165.162 268.38 165.163H247.756C247.612 165.161 247.475 165.104 247.373 165.003C247.271 164.902 247.213 164.765 247.21 164.622V157.577C247.21 157.505 247.224 157.433 247.252 157.366C247.28 157.299 247.321 157.238 247.372 157.187C247.424 157.136 247.485 157.095 247.552 157.068C247.619 157.04 247.691 157.026 247.764 157.027H268.388C268.534 157.027 268.675 157.085 268.779 157.188C268.882 157.291 268.941 157.431 268.942 157.577L268.934 164.609ZM268.934 146.411C268.933 146.557 268.874 146.697 268.77 146.8C268.667 146.903 268.526 146.961 268.38 146.961H247.756C247.683 146.962 247.611 146.948 247.544 146.92C247.477 146.893 247.415 146.853 247.364 146.801C247.312 146.75 247.271 146.69 247.244 146.623C247.216 146.556 247.201 146.484 247.201 146.411V139.379C247.201 139.232 247.26 139.091 247.364 138.987C247.468 138.883 247.609 138.825 247.756 138.825H268.38C268.527 138.826 268.667 138.885 268.771 138.988C268.874 139.092 268.933 139.232 268.934 139.379V146.411ZM268.934 128.209C268.934 128.356 268.876 128.497 268.772 128.601C268.668 128.705 268.527 128.763 268.38 128.763H247.756C247.683 128.763 247.61 128.749 247.543 128.722C247.475 128.694 247.414 128.653 247.362 128.602C247.311 128.55 247.27 128.489 247.242 128.421C247.215 128.354 247.201 128.282 247.201 128.209V121.181C247.201 121.108 247.215 121.035 247.242 120.968C247.27 120.9 247.311 120.839 247.362 120.788C247.414 120.736 247.475 120.695 247.543 120.668C247.61 120.64 247.683 120.626 247.756 120.626H268.38C268.527 120.626 268.668 120.685 268.772 120.789C268.876 120.893 268.934 121.034 268.934 121.181V128.209Z" fill="#F2F2F2"/>
<path d="M105.08 14.011L98.7089 18.0505L102.576 11.0142C101.481 10.1405 100.126 9.65661 98.7254 9.63895H98.6227C98.18 9.64558 97.7377 9.6126 97.3009 9.54042L95.1415 10.9239L96.0652 9.24075C94.5338 8.70682 93.2114 7.70064 92.2884 6.36712L88.4255 8.83023L90.8639 4.39253C88.6061 1.67901 85.5601 0.0164185 82.2061 0.0164185C78.1872 0.0164185 74.6075 2.40563 72.2962 6.12902C71.6128 7.24703 70.6443 8.16317 69.4901 8.78356C68.3359 9.40394 67.0375 9.70624 65.728 9.65947H65.5145C61.0768 9.65947 57.4807 14.6924 57.4807 20.8994C57.4807 27.1065 61.0768 32.1353 65.5145 32.1353C66.4893 32.1302 67.4485 31.8894 68.3101 31.4333C69.8205 30.6985 71.4726 30.301 73.1519 30.2684C74.8312 30.2357 76.4975 30.5688 78.0353 31.2445C79.3358 31.8263 80.7445 32.127 82.1692 32.127C83.5939 32.127 85.0026 31.8263 86.3031 31.2445C87.8286 30.5829 89.4786 30.2574 91.1411 30.2899C92.8035 30.3225 94.4395 30.7125 95.9379 31.4333C96.7936 31.8799 97.7438 32.1149 98.7089 32.1189C103.147 32.1189 106.743 27.0859 106.743 20.883C106.775 18.489 106.203 16.1256 105.08 14.011V14.011Z" fill="#F2F2F2"/>
<path opacity="0.03" d="M93.0725 30.4522C90.7545 30.0108 88.3575 30.271 86.1881 31.1993C84.888 31.7798 83.4801 32.0798 82.0563 32.0798C80.6324 32.0798 79.2246 31.7798 77.9244 31.1993C74.8907 29.8569 71.0934 29.8857 68.1993 31.3923C67.3361 31.8476 66.3754 32.087 65.3995 32.0902C61.4586 32.0902 58.1785 28.1205 57.4971 22.8822C58.2838 22.3075 58.9527 21.587 59.4676 20.7599C61.7788 17.0118 65.3503 14.6185 69.3774 14.6185C73.4046 14.6185 76.931 16.979 79.2299 20.6655C79.9183 21.7788 80.8831 22.6952 82.0304 23.3253C83.1778 23.9555 84.4687 24.278 85.7776 24.2616H85.8803C89.033 24.2657 91.7507 26.7822 93.0725 30.4522Z" fill="black"/>
<path d="M322.646 84.4599L319.461 86.4591L321.39 82.9492C320.843 82.5138 320.168 82.2726 319.469 82.2636H319.42C319.198 82.2679 318.977 82.2514 318.759 82.2143L317.683 82.8999L318.143 82.0583C317.381 81.791 316.722 81.2914 316.259 80.6297L314.333 81.8613L315.565 79.6445C315.052 78.9849 314.398 78.4475 313.652 78.0712C312.906 77.6949 312.086 77.4892 311.25 77.4688C309.247 77.4688 307.461 78.6634 306.324 80.5189C305.982 81.0771 305.497 81.5344 304.92 81.8438C304.343 82.1533 303.694 82.3038 303.04 82.28H302.933C300.72 82.28 298.926 84.7883 298.926 87.8836C298.926 90.9789 300.72 93.4871 302.933 93.4871C303.42 93.4856 303.899 93.3658 304.329 93.1382C305.082 92.7723 305.906 92.5743 306.743 92.558C307.58 92.5417 308.41 92.7074 309.177 93.0438C309.826 93.3335 310.529 93.4832 311.24 93.4832C311.951 93.4832 312.654 93.3335 313.303 93.0438C314.064 92.7144 314.887 92.5524 315.717 92.5686C316.546 92.5849 317.362 92.7792 318.11 93.1382C318.536 93.3608 319.009 93.4777 319.489 93.4789C321.702 93.4789 323.496 90.9707 323.496 87.8754C323.502 86.6838 323.21 85.5097 322.646 84.4599V84.4599Z" fill="#F2F2F2"/>
<path opacity="0.03" d="M316.657 92.6579C315.5 92.4404 314.304 92.5704 313.221 93.0315C312.575 93.3189 311.875 93.4672 311.168 93.4666C310.461 93.463 309.762 93.312 309.116 93.0233C308.348 92.6869 307.517 92.5211 306.679 92.5374C305.841 92.5537 305.017 92.7517 304.263 93.1177C303.833 93.3458 303.354 93.4656 302.867 93.4666C300.901 93.4666 299.267 91.4879 298.926 88.873C299.32 88.5862 299.654 88.2267 299.912 87.8138C301.061 85.9583 302.847 84.7637 304.838 84.7637C306.829 84.7637 308.606 85.9419 309.764 87.781C310.109 88.339 310.593 88.7977 311.169 89.1122C311.745 89.4267 312.392 89.5862 313.048 89.5749H313.102C314.641 89.5749 315.996 90.8311 316.657 92.6579Z" fill="black"/>
<path d="M400 272.978V275.03C399.998 276.122 399.768 277.201 399.326 278.198C398.883 279.196 398.237 280.091 397.429 280.825C396.622 281.559 395.67 282.116 394.634 282.461C393.599 282.807 392.503 282.932 391.416 282.83C375.344 281.303 359.346 278.462 343.221 278.955C313.492 279.862 283.516 292.022 254.738 284.509C246.622 282.391 238.597 278.709 230.247 279.501C222.755 280.211 216.088 284.448 208.83 286.434C186.757 292.494 164.285 277.181 141.399 277.797C126.316 278.208 111.874 285.552 96.8082 284.735C88.0765 284.267 79.7594 281.073 71.2412 279.107C50.0339 274.205 28.1943 276.947 6.3425 278.647C5.55441 278.707 4.76233 278.605 4.01576 278.345C3.2692 278.085 2.5842 277.675 2.00359 277.138C1.42297 276.602 0.959225 275.952 0.641325 275.228C0.323425 274.504 0.15821 273.723 0.156006 272.933V271.192C0.156006 269.668 0.761516 268.206 1.83933 267.128C2.91715 266.05 4.37899 265.445 5.90325 265.445L392.167 265.133C394.245 265.137 396.237 265.965 397.705 267.436C399.174 268.907 399.999 270.9 400 272.978V272.978Z" fill="#3F3D56"/>
<path opacity="0.1" d="M400 272.978V275.03C399.998 276.122 399.768 277.201 399.326 278.198C398.883 279.196 398.237 280.091 397.429 280.825C396.622 281.559 395.67 282.116 394.634 282.461C393.599 282.807 392.503 282.932 391.416 282.83C375.344 281.303 359.346 278.462 343.221 278.955C313.492 279.862 283.516 292.022 254.738 284.509C246.622 282.391 238.597 278.709 230.247 279.501C222.755 280.211 216.088 284.448 208.83 286.434C186.757 292.494 164.285 277.181 141.399 277.797C126.316 278.208 111.874 285.552 96.8082 284.735C88.0765 284.267 79.7594 281.073 71.2412 279.107C50.0339 274.205 28.1943 276.947 6.3425 278.647C5.55441 278.707 4.76233 278.605 4.01576 278.345C3.2692 278.085 2.5842 277.675 2.00359 277.138C1.42297 276.602 0.959225 275.952 0.641325 275.228C0.323425 274.504 0.15821 273.723 0.156006 272.933V271.192C0.156006 269.668 0.761516 268.206 1.83933 267.128C2.91715 266.05 4.37899 265.445 5.90325 265.445L392.167 265.133C394.245 265.137 396.237 265.965 397.705 267.436C399.174 268.907 399.999 270.9 400 272.978V272.978Z" fill="black"/>
<path d="M400 269.221V271.274C400 271.559 399.984 271.844 399.955 272.128C399.736 274.181 398.717 276.064 397.119 277.371C395.52 278.677 393.471 279.301 391.416 279.107C375.344 277.575 359.346 274.735 343.221 275.231C313.492 276.143 283.516 288.302 254.738 280.786C246.623 278.667 238.597 274.985 230.247 275.777C222.755 276.488 216.088 280.704 208.83 282.715C186.757 288.742 164.285 273.429 141.399 274.066C126.316 274.476 111.874 281.82 96.8082 281.007C88.0765 280.535 79.7595 277.346 71.2412 275.375C50.038 270.478 28.1944 273.216 6.34251 274.915C4.9213 275.025 3.51002 274.603 2.38272 273.73C1.25542 272.858 0.492544 271.598 0.242228 270.194C0.184133 269.866 0.155284 269.534 0.15602 269.201V267.444C0.15602 265.92 0.76153 264.458 1.83935 263.38C2.91716 262.302 4.379 261.697 5.90326 261.697L102.707 261.615L300.499 261.45L392.159 261.376C394.239 261.378 396.233 262.205 397.704 263.676C399.174 265.147 400 267.142 400 269.221V269.221Z" fill="#3F3D56"/>
<path d="M364.942 263.294C366.173 261.032 364.773 258.261 363.181 256.241C361.588 254.221 359.646 252.136 359.687 249.554C359.749 245.859 363.669 243.679 366.801 241.721C369.125 240.266 371.269 238.543 373.189 236.585C373.991 235.831 374.656 234.941 375.151 233.958C375.8 232.513 375.779 230.871 375.738 229.286C375.604 224.015 375.344 218.748 374.958 213.485" stroke="#3F3D56" stroke-width="4" stroke-miterlimit="10"/>
<path d="M380.915 213.198C380.871 212.233 380.585 211.295 380.083 210.47C379.581 209.644 378.879 208.959 378.041 208.477L376.752 211.031L376.789 207.939C376.174 207.758 375.533 207.681 374.893 207.714C373.759 207.77 372.667 208.161 371.755 208.837C370.843 209.513 370.151 210.445 369.768 211.513C369.384 212.582 369.326 213.741 369.601 214.842C369.875 215.944 370.47 216.94 371.309 217.704C372.149 218.469 373.196 218.967 374.319 219.137C375.442 219.306 376.59 219.139 377.618 218.657C378.646 218.175 379.508 217.4 380.095 216.428C380.683 215.456 380.97 214.332 380.919 213.198H380.915Z" fill="#57B894"/>
<path d="M370.64 252.193C370.035 253.365 369.047 254.293 367.84 254.822C366.633 255.351 365.28 255.449 364.009 255.1C362.738 254.751 361.626 253.975 360.859 252.903C360.092 251.831 359.716 250.529 359.795 249.213C359.875 247.897 360.404 246.649 361.294 245.677C362.184 244.705 363.381 244.068 364.685 243.874C365.988 243.679 367.319 243.939 368.454 244.609C369.589 245.279 370.459 246.319 370.919 247.554L367.319 250.485L371.28 249.566C371.279 250.48 371.059 251.381 370.64 252.193V252.193Z" fill="#57B894"/>
<path d="M367.795 241.011C366.36 241.118 364.937 240.683 363.807 239.791C362.677 238.9 361.923 237.617 361.694 236.196C361.464 234.775 361.776 233.32 362.567 232.119C363.359 230.917 364.572 230.055 365.968 229.705L365.935 232.078L367.241 229.496C367.997 229.459 368.753 229.572 369.466 229.828C370.178 230.084 370.833 230.478 371.393 230.988C371.952 231.498 372.405 232.114 372.726 232.8C373.047 233.485 373.23 234.228 373.263 234.984C373.296 235.649 373.213 236.315 373.017 236.951C372.668 238.081 371.98 239.077 371.046 239.804C370.111 240.53 368.977 240.951 367.795 241.011V241.011Z" fill="#57B894"/>
<path d="M381.781 231.7C380.257 231.772 378.767 231.235 377.638 230.208C376.509 229.181 375.835 227.748 375.763 226.224C375.691 224.7 376.228 223.209 377.255 222.081C378.282 220.952 379.715 220.277 381.239 220.206C382.317 220.152 383.387 220.405 384.326 220.936L383.308 223.724L385.406 221.716C386.527 222.743 387.196 224.172 387.266 225.69C387.293 226.224 387.245 226.759 387.122 227.279C386.835 228.497 386.157 229.588 385.193 230.386C384.229 231.184 383.031 231.645 381.781 231.7V231.7Z" fill="#57B894"/>
<path opacity="0.1" d="M380.139 214.733C378.809 214.881 377.516 215.296 376.182 215.378C374.848 215.46 373.382 215.14 372.536 214.101C372.085 213.543 371.855 212.837 371.473 212.225C371.108 211.658 370.609 211.19 370.02 210.862C369.671 211.589 369.48 212.381 369.457 213.187C369.435 213.993 369.582 214.794 369.89 215.539C370.197 216.284 370.658 216.956 371.242 217.512C371.827 218.067 372.521 218.494 373.281 218.763C374.04 219.033 374.848 219.139 375.652 219.076C376.455 219.013 377.237 218.782 377.945 218.397C378.653 218.013 379.273 217.483 379.763 216.844C380.254 216.204 380.604 215.468 380.792 214.684C380.574 214.697 380.357 214.709 380.139 214.733Z" fill="black"/>
<path opacity="0.1" d="M381.781 231.7C380.788 231.751 379.798 231.542 378.909 231.095C378.02 230.649 377.262 229.979 376.71 229.151C376.157 228.324 375.829 227.367 375.758 226.374C375.686 225.382 375.873 224.388 376.301 223.49C376.759 223.798 377.152 224.192 377.459 224.652C377.869 225.271 378.119 225.986 378.6 226.552C379.499 227.611 381.03 227.956 382.422 227.891C383.813 227.825 385.156 227.435 386.527 227.308C386.72 227.287 386.913 227.275 387.11 227.271C386.824 228.488 386.15 229.579 385.188 230.379C384.226 231.178 383.03 231.642 381.781 231.7V231.7Z" fill="black"/>
<path opacity="0.1" d="M367.795 241.011C366.81 241.061 365.829 240.858 364.946 240.419C364.062 239.981 363.307 239.323 362.751 238.508C362.196 237.693 361.859 236.749 361.774 235.767C361.689 234.785 361.858 233.797 362.265 232.899C362.746 233.207 363.164 233.604 363.497 234.069C363.944 234.701 364.223 235.428 364.728 236.011C365.701 237.094 367.335 237.472 368.805 237.439C370.274 237.406 371.609 237.057 373.025 236.951C372.676 238.083 371.986 239.079 371.05 239.806C370.115 240.532 368.978 240.953 367.795 241.011V241.011Z" fill="black"/>
<path opacity="0.1" d="M370.64 252.193C370.331 252.883 369.89 253.505 369.341 254.024C368.791 254.544 368.145 254.95 367.439 255.219C366.734 255.489 365.981 255.616 365.226 255.595C364.471 255.574 363.727 255.404 363.037 255.096C362.347 254.787 361.725 254.345 361.206 253.796C360.687 253.247 360.281 252.601 360.011 251.895C359.742 251.189 359.614 250.437 359.635 249.682C359.656 248.926 359.826 248.183 360.135 247.493C360.609 247.805 361.035 248.185 361.399 248.622C361.949 249.291 362.31 250.046 362.943 250.674C364.121 251.828 366.021 252.316 367.717 252.349C368.693 252.355 369.669 252.303 370.64 252.193V252.193Z" fill="black"/>
<path d="M356.251 260.691C356.251 260.691 360.8 260.547 362.171 259.574C363.542 258.601 369.15 257.431 369.503 258.996C369.856 260.56 376.338 266.795 371.202 266.824C366.067 266.853 359.297 266.003 357.906 265.182C356.514 264.361 356.251 260.691 356.251 260.691Z" fill="#656380"/>
<path opacity="0.2" d="M371.297 266.266C366.161 266.307 359.367 265.465 358 264.624C356.957 263.991 356.543 261.713 356.403 260.662H356.251C356.251 260.662 356.539 264.328 357.893 265.178C359.248 266.028 366.058 266.853 371.19 266.82C372.672 266.82 373.185 266.278 373.156 265.498C372.963 265.974 372.417 266.266 371.297 266.266Z" fill="black"/>
<path d="M250.818 213.453C250.818 220.308 254.332 220.711 260.19 225.863C266.048 231.015 269.558 220.308 269.558 213.453C269.558 206.597 265.363 201.039 260.19 201.039C255.018 201.039 250.818 206.597 250.818 213.453Z" fill="#915766"/>
<path d="M191.018 151.859C190.464 153.201 191.231 154.786 192.377 155.672C193.522 156.559 194.971 156.941 196.346 157.401C202.504 159.453 208.013 163.739 211.059 169.478C214.105 175.217 214.512 182.422 211.626 188.247C210.086 191.355 207.701 193.994 206.289 197.151C203.448 203.432 204.889 211.137 208.97 216.696C213.05 222.254 221.043 223.326 227.714 225.05C227.714 225.05 244.956 238.597 251.114 234.902" stroke="#3F3D56" stroke-miterlimit="10"/>
<path d="M205.94 257.891C205.94 257.891 205.119 264.87 208.814 265.28C210.615 265.442 212.424 265.501 214.233 265.457C215.28 265.444 216.306 265.153 217.204 264.614C218.103 264.074 218.842 263.306 219.346 262.387C219.85 261.469 220.101 260.433 220.073 259.385C220.045 258.338 219.74 257.316 219.188 256.426L219.077 256.253C215.382 250.502 205.94 257.891 205.94 257.891Z" fill="#915766"/>
<path d="M207.993 252.144C207.993 252.144 217.024 264.049 230.571 253.375C244.118 242.702 227.698 237.776 227.698 237.776H210.456L200.193 242.291L207.993 252.144Z" fill="#B56D7E"/>
<path d="M244.939 242.292C244.939 242.292 249.044 247.218 252.739 246.807C255.703 246.479 261.573 249.32 260.601 254.484C260.465 255.243 260.181 255.968 259.764 256.616C259.347 257.265 258.806 257.824 258.171 258.262C257.537 258.7 256.822 259.009 256.068 259.169C255.314 259.329 254.536 259.339 253.778 259.197C252.99 259.047 252.255 258.697 251.642 258.181C251.028 257.664 250.558 256.999 250.276 256.249C250.276 256.249 237.14 257.07 237.55 253.375C237.961 249.681 244.939 242.292 244.939 242.292Z" fill="#915766"/>
<path d="M211.084 244.549C211.084 244.549 216.421 252.76 211.084 258.096C205.747 263.433 200 264.254 200 264.254C200 264.254 202.053 267.949 194.253 267.538C186.453 267.128 183.99 264.665 186.453 260.97C188.916 257.275 195.074 253.17 193.842 250.297C192.611 247.423 190.969 241.265 193.432 237.57C192.439 236.748 191.568 235.789 190.845 234.721C188.666 231.405 193.029 227.669 196.047 230.251L198.358 232.234C198.358 232.234 205.337 226.487 220.526 229.36C220.526 229.36 226.684 228.95 227.915 224.434C227.915 224.434 221.347 210.066 238.589 199.392C241.689 198.047 245.072 197.483 248.441 197.75C254.188 198.161 260.346 198.571 264.451 207.603C264.451 207.603 267.805 213.76 271.746 216.133C272.809 216.794 273.716 217.677 274.405 218.722C275.095 219.766 275.55 220.947 275.74 222.184C276.927 229.258 275.424 240.506 251.315 234.697C251.315 234.697 249.467 249.681 237.973 255.838C237.973 255.838 237.152 259.944 237.973 261.175C238.794 262.407 242.899 268.154 236.331 267.743C233.047 267.542 230.514 267.538 228.769 267.592C228.023 267.615 227.285 267.434 226.634 267.069C225.983 266.704 225.444 266.169 225.074 265.52C224.705 264.872 224.519 264.135 224.537 263.389C224.556 262.643 224.777 261.916 225.177 261.286C225.198 261.249 225.222 261.212 225.247 261.175C225.271 261.138 226.478 255.428 222.373 250.912L221.552 245.986L211.084 244.549Z" fill="#9C5E6D"/>
<path d="M268.955 222.796C271.902 222.796 274.291 221.877 274.291 220.743C274.291 219.61 271.902 218.691 268.955 218.691C266.007 218.691 263.618 219.61 263.618 220.743C263.618 221.877 266.007 222.796 268.955 222.796Z" fill="#915766"/>
<path d="M128.529 227.874C127.315 228.552 126.034 229.102 124.707 229.516C122.334 230.165 119.781 229.927 117.396 230.481C116.415 230.707 115.343 231.183 115.035 232.123C114.805 232.825 115.035 233.584 115.294 234.286C117.942 242.053 119.539 250.297 123.767 257.345C125.543 260.301 127.749 262.976 130.311 265.285C131.271 266.151 132.363 267.001 133.644 267.136C134.237 267.199 134.836 267.104 135.381 266.861C135.925 266.618 136.396 266.236 136.746 265.753C137.095 265.27 137.312 264.703 137.372 264.11C137.433 263.517 137.337 262.918 137.092 262.374C136.711 261.553 136.009 260.88 135.553 260.075C134.995 259.09 134.843 257.932 134.703 256.791C134.293 253.47 133.882 249.997 135.036 246.848C135.807 244.738 137.224 242.94 138.402 241.031C139.58 239.122 140.565 236.926 140.303 234.697C140.122 233.174 139.379 231.782 138.595 230.464C137.811 229.147 136.255 225.596 134.674 225.156C133.094 224.717 129.962 227.139 128.529 227.874Z" fill="white"/>
<path d="M171.748 254.714C171.772 255.466 171.668 256.217 171.44 256.935C170.944 258.24 169.716 259.135 169.084 260.379C168.201 262.107 168.604 264.201 169.187 266.052C169.552 267.214 170.032 268.421 171.013 269.139C171.81 269.718 172.824 269.895 173.797 270.03C182.233 271.196 190.796 270.527 199.306 270.773C200.858 270.818 202.5 270.872 203.855 270.112C205.209 269.353 206.047 267.448 205.123 266.2C204.302 265.079 202.66 265.092 201.273 265.022C197.648 264.84 194.196 263.418 191.494 260.995C190.961 260.541 190.498 260.01 190.123 259.418C189.832 258.895 189.592 258.345 189.405 257.776C188.21 254.546 186.79 251.403 185.156 248.371C184.7 247.521 184.183 246.639 183.329 246.183C182.707 245.902 182.033 245.755 181.35 245.752C179.228 245.613 173.735 244.89 172.097 246.54C170.582 248.059 171.781 252.78 171.748 254.714Z" fill="white"/>
<path d="M184.799 66.3889C192.28 66.3889 198.346 60.3237 198.346 52.8418C198.346 45.36 192.28 39.2947 184.799 39.2947C177.317 39.2947 171.251 45.36 171.251 52.8418C171.251 60.3237 177.317 66.3889 184.799 66.3889Z" fill="#FBBEBE"/>
<path d="M172.565 64.0243C171.744 66.1836 170.393 68.2075 168.407 69.361L187.143 73.1829C186.461 70.4488 186.371 67.6005 186.88 64.8289C187.062 64.1604 187.1 63.4606 186.991 62.7763C186.638 61.4175 185.106 60.7607 183.739 60.4487C180.32 59.6687 177.294 59.25 174.117 57.7434C173.148 59.406 173.284 62.1072 172.565 64.0243Z" fill="#FBBEBE"/>
<path d="M168.246 64.2912C170.263 63.3802 172.459 62.9372 174.671 62.9955C176.882 63.0538 179.052 63.6118 181.018 64.6278C183.419 65.8922 185.41 67.8052 187.364 69.6895C189.166 71.4259 191.088 73.417 191.215 75.917C191.277 77.128 190.899 78.3103 190.706 79.509C190.364 81.9852 190.801 84.5064 191.956 86.7233C193.11 88.9401 194.926 90.743 197.151 91.882C198.637 94.3451 198.945 97.3665 198.97 100.261C199.056 111.217 195.599 122.31 198.066 132.987C198.645 135.491 199.544 137.913 200.045 140.442C200.694 143.726 200.661 147.072 201.002 150.389C201.369 153.979 202.171 157.51 203.391 160.906C202.57 162.204 200.879 162.7 199.351 162.594C197.824 162.487 196.392 161.826 195.029 161.128C188.428 157.75 182.376 153.295 175.537 150.422C171.022 148.521 166.194 147.339 161.805 145.143C157.417 142.946 153.332 139.465 151.99 134.748C151.411 132.696 151.374 130.557 151.341 128.435C151.21 119.498 151.087 110.462 153.033 101.751C154.745 94.0578 158.053 86.7013 158.78 78.8522C159.014 76.2947 159.018 73.5606 160.447 71.4301C162.458 68.3963 166.814 67.6287 168.246 64.2912Z" fill="#3F3D56"/>
<path d="M177.093 53.0307C177.894 51.9879 179.433 51.8484 180.71 52.1562C181.987 52.4641 183.173 53.121 184.445 53.3878C184.739 53.4704 185.046 53.4911 185.348 53.4487C185.65 53.4063 185.939 53.3017 186.198 53.1415C186.695 52.7597 186.847 52.0906 186.954 51.4707C187.404 48.7871 187.509 46.0568 187.266 43.3465C187.199 42.9657 187.224 42.5744 187.34 42.2053C187.66 41.4376 188.633 41.2529 189.425 41.0066C190.736 40.5643 191.862 39.6978 192.626 38.544C193.389 37.3902 193.747 36.0149 193.641 34.6354C193.623 33.973 193.344 33.3446 192.865 32.8866C192.315 32.4391 191.547 32.4104 190.837 32.4021C187.197 32.3748 183.556 32.3748 179.913 32.4021C178.567 32.4021 177.151 32.4473 175.981 33.1206C175.119 33.6173 174.474 34.4137 173.698 35.0418C171.678 36.6838 168.94 37.004 166.481 37.8415C165.28 38.184 164.188 38.835 163.316 39.7299C162.495 40.6659 162.105 42.0534 162.618 43.1864C162.883 43.6578 163.178 44.1117 163.501 44.5453C164.954 46.8647 163.985 49.882 164.203 52.6037C164.474 56.011 169.515 61.5407 172.935 62.3453C178.456 63.6343 175.266 55.2598 177.093 53.0307Z" fill="#3F3D56"/>
<path d="M169.445 202.434C169.794 204.922 170.242 207.422 170.123 209.93C169.954 213.432 168.694 216.811 168.46 220.308C168.283 222.923 168.69 225.567 168.324 228.162C168.09 229.804 167.553 231.421 167.216 233.088C166.689 235.762 166.705 238.515 167.265 241.182C167.825 243.85 168.917 246.377 170.476 248.613C170.704 248.998 171.029 249.315 171.42 249.533C171.795 249.671 172.196 249.725 172.594 249.689C176.537 249.606 180.47 249.247 184.363 248.613C184.476 248.627 184.59 248.617 184.698 248.585C184.807 248.552 184.907 248.498 184.994 248.425C185.08 248.351 185.15 248.261 185.2 248.159C185.25 248.058 185.278 247.947 185.283 247.834C186.005 244.139 184.359 240.403 183.941 236.647C183.493 232.636 184.454 228.617 185.41 224.693C185.843 222.759 186.384 220.851 187.032 218.978C187.492 217.714 188.05 216.49 188.452 215.206C189.018 213.197 189.364 211.132 189.483 209.048C189.756 205.764 189.903 202.459 189.922 199.134C189.922 195.997 189.831 192.841 189.146 189.778C188.267 185.882 186.469 182.262 184.684 178.694C183.719 178.846 182.877 179.408 182.06 179.926C179.762 181.412 177.363 182.738 174.88 183.891C173.214 184.663 169.954 185.213 168.903 186.831C167.852 188.448 168.534 191.667 168.612 193.424C168.751 196.441 169.031 199.45 169.445 202.434Z" fill="#3F3D56"/>
<path opacity="0.1" d="M169.445 202.434C169.794 204.922 170.242 207.422 170.123 209.93C169.954 213.432 168.694 216.811 168.46 220.308C168.283 222.923 168.69 225.567 168.324 228.162C168.09 229.804 167.553 231.421 167.216 233.088C166.689 235.762 166.705 238.515 167.265 241.182C167.825 243.85 168.917 246.377 170.476 248.613C170.704 248.998 171.029 249.315 171.42 249.533C171.795 249.671 172.196 249.725 172.594 249.689C176.537 249.606 180.47 249.247 184.363 248.613C184.476 248.627 184.59 248.617 184.698 248.585C184.807 248.552 184.907 248.498 184.994 248.425C185.08 248.351 185.15 248.261 185.2 248.159C185.25 248.058 185.278 247.947 185.283 247.834C186.005 244.139 184.359 240.403 183.941 236.647C183.493 232.636 184.454 228.617 185.41 224.693C185.843 222.759 186.384 220.851 187.032 218.978C187.492 217.714 188.05 216.49 188.452 215.206C189.018 213.197 189.364 211.132 189.483 209.048C189.756 205.764 189.903 202.459 189.922 199.134C189.922 195.997 189.831 192.841 189.146 189.778C188.267 185.882 186.469 182.262 184.684 178.694C183.719 178.846 182.877 179.408 182.06 179.926C179.762 181.412 177.363 182.738 174.88 183.891C173.214 184.663 169.954 185.213 168.903 186.831C167.852 188.448 168.534 191.667 168.612 193.424C168.751 196.441 169.031 199.45 169.445 202.434Z" fill="black"/>
<path d="M151.148 149.293C149.35 154.137 151.994 159.371 154.293 163.998C159.933 175.398 163.874 187.565 167.774 199.68C168.066 200.587 168.361 201.576 168.033 202.471C167.753 203.108 167.295 203.651 166.715 204.035C164.018 206.088 160.586 206.815 157.376 207.886C154.272 208.922 151.3 210.315 148.517 212.036C146.193 213.477 144.001 215.144 141.838 216.807L134.912 222.094C134.463 222.396 134.071 222.775 133.755 223.215C133.086 224.262 133.344 225.629 133.693 226.827C134.573 229.998 135.707 233.092 137.084 236.08C137.371 236.708 137.708 237.365 138.316 237.694C139.399 238.272 140.721 237.505 141.546 236.593C142.372 235.682 143.086 234.541 144.248 234.167C145.409 233.794 146.69 234.249 147.901 234.081C149.868 233.802 151.185 231.996 152.585 230.608C158.365 224.935 168.017 225.345 174.38 220.345C175.348 219.582 176.231 218.703 177.29 218.067C178.349 217.431 179.585 217.086 180.702 216.523C184.092 214.816 186.227 211.281 187.368 207.66C188.51 204.039 188.838 200.213 189.659 196.502C190.07 194.585 190.64 192.689 190.829 190.755C190.951 188.937 190.912 187.111 190.714 185.299L188.419 156.912C188.23 154.601 188.046 152.29 187.68 149.999C180.866 150.241 174.055 150.516 167.237 150.598C161.822 150.627 156.28 151.009 151.148 149.293Z" fill="#3F3D56"/>
<path d="M148.628 155.931C149.551 157.421 151.801 157.388 153.349 156.575C154.896 155.763 156.103 154.387 157.655 153.583C159.745 152.495 162.212 152.536 164.564 152.602C168.288 152.708 172.056 152.819 175.648 153.833C179.343 154.888 182.959 156.92 186.794 156.514C187.459 156.444 188.189 156.251 188.551 155.693C188.761 155.284 188.862 154.827 188.842 154.367L188.965 151.017C189.041 150.439 188.948 149.852 188.698 149.326C188.378 148.886 187.938 148.548 187.43 148.353C181.974 145.713 175.759 145.221 169.704 145.011C166.625 144.91 163.545 144.868 160.463 144.884C157.852 144.884 154.716 144.523 152.171 145.221C148.751 146.161 146.895 153.152 148.628 155.931Z" fill="#3F3D56"/>
<path d="M182.869 68.2691C175.722 68.2075 169.248 63.4907 162.105 63.3757C161.241 63.3178 160.375 63.467 159.58 63.8109C158.587 64.3117 157.938 65.2805 157.175 66.1016C155.065 68.3881 152.002 69.6115 149.835 71.8488C147.782 73.9424 146.666 77.0583 147.47 79.8662C148.275 82.6741 151.304 84.8253 154.145 84.152C155.29 80.4482 157.652 77.2397 160.849 75.0467C162.511 73.978 164.264 73.0576 166.087 72.2963C169.301 70.8389 172.889 69.357 176.243 70.4489C177.48 70.9151 178.646 71.5507 179.708 72.3373L185.295 76.0894C184.647 73.5196 184.06 70.6378 182.869 68.2691Z" fill="#63B3ED"/>
<path d="M153.324 81.6643C152.376 82.8465 153.735 84.5625 153.534 86.065C153.394 87.0626 152.573 87.8261 152.228 88.7744C151.883 89.7227 152.064 90.827 151.928 91.8779C151.793 92.6311 151.594 93.3713 151.333 94.0906C150.731 96.2409 150.311 98.4381 150.077 100.659L148.825 110.002C148.602 111.406 148.465 112.822 148.414 114.243C148.414 115.306 148.48 116.39 148.201 117.416C147.922 118.443 147.314 119.333 146.9 120.29C146.485 121.246 146.296 122.441 146.854 123.34C144.987 124.892 144.432 127.946 145.738 129.994C145.987 130.313 146.181 130.671 146.313 131.054C146.385 131.587 146.297 132.131 146.058 132.614L144.794 135.984C144.469 136.846 144.383 138.16 145.27 138.357C144.523 139.13 143.942 140.048 143.562 141.054C143.377 141.558 143.321 142.101 143.401 142.633C143.48 143.165 143.693 143.668 144.018 144.096C144.33 144.373 144.598 144.697 144.81 145.056C145.003 145.533 144.835 146.07 144.716 146.571C144.526 147.307 144.49 148.074 144.609 148.824C144.727 149.575 144.998 150.293 145.405 150.935C145.826 151.569 146.423 152.066 147.122 152.366C147.821 152.666 148.593 152.755 149.342 152.622C151.871 152.052 154.145 151.153 156.695 151.621C162.187 152.626 167.696 153.64 173.017 155.34C179.084 157.277 184.963 160.118 191.309 160.713C191.729 160.803 192.167 160.736 192.541 160.525C192.864 160.218 193.065 159.806 193.107 159.363L195.074 150.171C195.865 146.774 196.466 143.335 196.876 139.872C197.102 137.638 197.163 135.389 197.229 133.143L197.734 115.269C197.976 112.635 197.628 109.981 196.716 107.498L193.809 98.2204C192.167 92.9247 188.345 88.2284 186.991 82.8465C186.133 79.4393 185.501 75.7856 183.198 73.1296C179.913 69.3446 174.248 68.7576 169.285 69.4062C167.04 69.7018 164.769 70.2272 162.84 71.3726C160.594 72.715 158.944 74.8332 157.343 76.9064C156.013 78.61 154.671 79.9811 153.324 81.6643Z" fill="#63B3ED"/>
<path d="M164.917 134.239C165.328 136.004 166.186 137.63 166.711 139.362C167.59 142.265 167.532 145.393 168.394 148.295C168.764 149.527 169.301 150.685 169.564 151.928C170.184 154.835 169.281 157.836 168.16 160.586C167.04 163.337 165.677 166.046 165.311 168.994C165.057 171.067 165.426 173.411 167.023 174.741C168.686 176.141 171.095 176.046 173.259 175.857C174.036 175.836 174.803 175.677 175.525 175.389C177.167 174.605 177.873 172.647 178.263 170.874C179.556 164.88 179.187 158.669 178.809 152.548L177.832 136.542C177.643 133.463 177.422 130.319 176.49 127.359C176.145 126.283 175.545 124.108 174.56 123.418C173.575 122.728 170.808 122.708 169.601 122.65C163.936 122.388 164.002 130.282 164.917 134.239Z" fill="#FBBEBE"/>
<path d="M171.182 75.1411C170.028 74.5376 168.575 74.7963 167.458 75.4736C166.342 76.151 165.492 77.1732 164.663 78.183C162.167 81.2291 159.527 84.7267 159.897 88.6471C160.036 90.1168 160.599 91.5208 160.98 92.937C162.651 99.1892 160.804 105.807 161.013 112.281C161.136 116.02 161.949 119.699 162.762 123.365C162.926 124.108 163.172 124.97 163.911 125.224C164.453 125.409 165.04 125.167 165.553 124.966C167.551 124.227 169.697 123.981 171.81 124.246C173.922 124.512 175.94 125.283 177.692 126.493C179.035 125.778 178.513 123.521 178.23 122.03C177.339 117.609 178.55 113.048 180.02 108.783C181.49 104.518 183.251 100.261 183.497 95.7573C183.772 90.6505 182.081 85.6709 180.41 80.8391C180.045 79.7841 179.647 78.6798 178.801 77.9655C178.078 77.4293 177.25 77.0516 176.371 76.8571C174.618 76.3029 172.82 75.9991 171.182 75.1411Z" fill="#3F3D56"/>
<path d="M227.698 225.05C227.698 225.05 240.013 238.597 251.097 234.902" stroke="#3F3D56" stroke-miterlimit="10"/>
<path d="M242.608 213.453C242.608 220.308 239.098 220.711 233.24 225.863C227.381 231.015 223.872 220.308 223.872 213.453C223.872 206.597 228.067 201.039 233.24 201.039C238.412 201.039 242.608 206.597 242.608 213.453Z" fill="#915766"/>
<path d="M35.793 219.799C36.6909 218.233 37.1543 216.456 37.1354 214.651C37.1354 210 34.2618 206.232 30.6985 206.232C27.1352 206.232 24.2657 210 24.2657 214.651C24.2468 216.456 24.7102 218.233 25.6081 219.799C24.7279 221.372 24.2657 223.145 24.2657 224.947C24.2657 226.75 24.7279 228.522 25.6081 230.095C24.7279 231.668 24.2657 233.44 24.2657 235.243C24.2657 237.045 24.7279 238.818 25.6081 240.391C24.7279 241.964 24.2657 243.736 24.2657 245.539C24.2657 247.341 24.7279 249.114 25.6081 250.687C24.7108 252.253 24.2474 254.03 24.2657 255.835C24.2657 260.486 27.1393 264.258 30.6985 264.258C34.2577 264.258 37.1354 260.486 37.1354 255.835C37.1537 254.03 36.6903 252.253 35.793 250.687C36.671 249.115 37.1319 247.345 37.1319 245.545C37.1319 243.745 36.671 241.975 35.793 240.403C36.6732 238.83 37.1354 237.058 37.1354 235.255C37.1354 233.453 36.6732 231.68 35.793 230.107C36.6732 228.534 37.1354 226.762 37.1354 224.959C37.1354 223.157 36.6732 221.385 35.793 219.812V219.799Z" fill="#3F3D56"/>
<path d="M30.6821 212.783C34.2348 212.783 37.1149 209.012 37.1149 204.36C37.1149 199.707 34.2348 195.936 30.6821 195.936C27.1293 195.936 24.2493 199.707 24.2493 204.36C24.2493 209.012 27.1293 212.783 30.6821 212.783Z" fill="#3F3D56"/>
<path d="M30.6821 202.488C34.2348 202.488 37.1149 198.716 37.1149 194.064C37.1149 189.412 34.2348 185.64 30.6821 185.64C27.1293 185.64 24.2493 189.412 24.2493 194.064C24.2493 198.716 27.1293 202.488 30.6821 202.488Z" fill="#3F3D56"/>
<path d="M6.59703 123.611C5.71876 122.491 4.91776 121.313 4.19961 120.085L21.1088 117.305L2.82027 117.441C1.06772 113.625 0.111759 109.492 0.0108233 105.295C-0.0901122 101.097 0.6661 96.9228 2.23323 93.0274L26.7616 105.753L4.14214 89.1151C6.25911 85.4486 9.10879 82.2575 12.5135 79.7408C15.9182 77.2242 19.8048 75.436 23.9311 74.4877C28.0574 73.5395 32.3348 73.4515 36.4965 74.2293C40.6583 75.0071 44.6152 76.634 48.1205 79.0086C51.6258 81.3831 54.6042 84.4544 56.8701 88.0308C59.1361 91.6072 60.6409 95.6122 61.2907 99.7958C61.9405 103.98 61.7214 108.252 60.6471 112.347C59.5727 116.443 57.6662 120.273 55.0463 123.599C56.4182 125.339 57.5965 127.223 58.5603 129.219L36.6141 140.647L60.0136 132.794C61.6562 137.652 62.0619 142.843 61.1939 147.897C60.3259 152.951 58.2115 157.708 55.0422 161.74C58.6198 166.286 60.8459 171.747 61.4658 177.498C62.0858 183.25 61.0745 189.06 58.5478 194.264C56.0211 199.467 52.0809 203.855 47.1778 206.925C42.2746 209.995 36.6065 211.623 30.8217 211.623C25.0368 211.623 19.3687 209.995 14.4656 206.925C9.56244 203.855 5.62222 199.467 3.0955 194.264C0.568782 189.06 -0.442426 183.25 0.177515 177.498C0.797456 171.747 3.02352 166.286 6.60114 161.74C2.32757 156.307 0.00415528 149.596 0.00415528 142.684C0.00415528 135.771 2.32757 129.06 6.60114 123.627L6.59703 123.611Z" fill="#57B894"/>
<path opacity="0.1" d="M61.6556 142.667C61.6645 149.581 59.3401 156.295 55.0586 161.723C58.6362 166.269 60.8623 171.73 61.4822 177.482C62.1021 183.233 61.0909 189.043 58.5642 194.247C56.0375 199.451 52.0973 203.839 47.1941 206.909C42.291 209.978 36.6229 211.606 30.838 211.606C25.0532 211.606 19.3851 209.978 14.482 206.909C9.57883 203.839 5.63861 199.451 3.11189 194.247C0.58517 189.043 -0.426038 183.233 0.193903 177.482C0.813844 171.73 3.0399 166.269 6.61752 161.723C2.46719 156.477 61.6556 139.206 61.6556 142.667Z" fill="black"/>
</g>
<defs>
<clipPath id="clip0">
<rect width="400" height="287.867" fill="white"/>
</clipPath>
</defs>
</svg>
