<svg id="Capa_1" enable-background="new 0 0 512 512" height="512" viewBox="0 0 512 512" width="512" xmlns="http://www.w3.org/2000/svg" xmlns:xlink="http://www.w3.org/1999/xlink"><radialGradient id="SVGID_1_" cx="266.72" cy="3243.918" gradientTransform="matrix(.931 0 0 .112 11.619 53.463)" gradientUnits="userSpaceOnUse" r="256.473"><stop offset="0" stop-color="#f4d8bc"/><stop offset=".0882" stop-color="#f6dcc2"/><stop offset=".4962" stop-color="#ffead8"/><stop offset=".8982" stop-color="#fff"/></radialGradient><radialGradient id="SVGID_2_" cx="406.918" cy="218.16" gradientTransform="matrix(-.789 .615 -.846 -1.086 912.47 204.991)" gradientUnits="userSpaceOnUse" r="99.163"><stop offset="0" stop-color="#d56617"/><stop offset=".0713" stop-color="#d87126"/><stop offset=".2817" stop-color="#e18f4d"/><stop offset=".4752" stop-color="#e7a569"/><stop offset=".6442" stop-color="#ebb27a"/><stop offset=".7699" stop-color="#ecb780"/></radialGradient><linearGradient id="SVGID_3_" gradientUnits="userSpaceOnUse" x1="364.117" x2="347.509" y1="354.1" y2="313.003"><stop offset=".3323" stop-color="#e49542"/><stop offset=".7424" stop-color="#e07f27"/><stop offset="1" stop-color="#df751c"/></linearGradient><linearGradient id="lg1"><stop offset=".278" stop-color="#d56617"/><stop offset=".6971" stop-color="#e49542"/></linearGradient><radialGradient id="SVGID_4_" cx="343.314" cy="266.349" gradientTransform="matrix(.908 .419 -.323 .7 117.45 -63.843)" gradientUnits="userSpaceOnUse" r="95.854" xlink:href="#lg1"/><radialGradient id="SVGID_5_" cx="347.959" cy="401.831" gradientUnits="userSpaceOnUse" r="26.062"><stop offset="0" stop-color="#ecb780"/><stop offset=".1113" stop-color="#ebb378"/><stop offset=".695" stop-color="#e69d51"/><stop offset="1" stop-color="#e49542"/></radialGradient><linearGradient id="SVGID_6_" gradientTransform="matrix(1 0 0 1.039 0 63.109)" gradientUnits="userSpaceOnUse" x1="195.714" x2="189.477" y1="256.539" y2="225.366"><stop offset=".2584" stop-color="#e49542"/><stop offset=".5125" stop-color="#e38e39"/><stop offset=".9234" stop-color="#e07921"/><stop offset="1" stop-color="#df751c"/></linearGradient><radialGradient id="SVGID_7_" cx="176.21" cy="403.683" gradientUnits="userSpaceOnUse" r="22.993"><stop offset="0" stop-color="#e7a561"/><stop offset=".458" stop-color="#e59d51"/><stop offset="1" stop-color="#e49542"/></radialGradient><radialGradient id="SVGID_8_" cx="198.083" cy="249.424" gradientTransform="matrix(.908 .419 -.323 .7 98.661 -8.139)" gradientUnits="userSpaceOnUse" r="72.308" xlink:href="#lg1"/><radialGradient id="SVGID_9_" cx="236.313" cy="110.346" gradientTransform="matrix(.008 1 -1.376 .011 386.235 -127.22)" gradientUnits="userSpaceOnUse" r="192.838"><stop offset="0" stop-color="#f4d8bc"/><stop offset=".2419" stop-color="#f1cba5"/><stop offset=".563" stop-color="#ecb780"/><stop offset=".6559" stop-color="#ecb57d"/><stop offset=".7357" stop-color="#eaaf72"/><stop offset=".8106" stop-color="#e9a560"/><stop offset=".8825" stop-color="#e69847"/><stop offset=".9517" stop-color="#e28628"/><stop offset=".9587" stop-color="#e28424"/></radialGradient><radialGradient id="SVGID_10_" cx="95" cy="205.134" gradientTransform="matrix(-.371 .929 -1.279 -.51 392.463 221.501)" gradientUnits="userSpaceOnUse" r="150.626"><stop offset="0" stop-color="#fffbe4"/><stop offset=".1053" stop-color="#fbedd1"/><stop offset=".3347" stop-color="#f2d2ab"/><stop offset=".4559" stop-color="#efc89d"/><stop offset=".5474" stop-color="#ecb986"/><stop offset=".7387" stop-color="#e5934a"/><stop offset=".8756" stop-color="#df751c"/></radialGradient><radialGradient id="SVGID_11_" cx="99.938" cy="131.459" gradientTransform="matrix(1 0 0 .846 0 20.186)" gradientUnits="userSpaceOnUse" r="98.006"><stop offset=".0413" stop-color="#e28424"/><stop offset=".0483" stop-color="#e28628"/><stop offset=".1175" stop-color="#e69847"/><stop offset=".1894" stop-color="#e9a560"/><stop offset=".2643" stop-color="#eaaf72"/><stop offset=".3441" stop-color="#ecb57d"/><stop offset=".437" stop-color="#ecb780"/><stop offset=".7581" stop-color="#f1cba5"/><stop offset="1" stop-color="#f4d8bc"/></radialGradient><radialGradient id="SVGID_12_" cx="59.098" cy="70.978" gradientTransform="matrix(-.96 .279 -.299 -1.029 137.085 127.47)" gradientUnits="userSpaceOnUse" r="129.903"><stop offset=".0005790931" stop-color="#fff9e2"/><stop offset=".2293" stop-color="#f4d8b3"/><stop offset=".36" stop-color="#efc89d"/><stop offset=".9388" stop-color="#efc89d"/></radialGradient><radialGradient id="SVGID_13_" cx="17.364" cy="97.776" gradientTransform="matrix(-.96 .279 -.182 -.625 51.804 153.991)" gradientUnits="userSpaceOnUse" r="72.659"><stop offset=".143" stop-color="#f4d8bc"/><stop offset=".2582" stop-color="#f3d5b6"/><stop offset=".412" stop-color="#f1cba5"/><stop offset=".5877" stop-color="#edbc89"/><stop offset=".7784" stop-color="#e7a663"/><stop offset=".7862" stop-color="#e7a561"/></radialGradient><radialGradient id="SVGID_14_" cx="85.355" cy="95.194" gradientTransform="matrix(-.96 .279 -.182 -.625 184.611 130.799)" gradientUnits="userSpaceOnUse" r="78.078"><stop offset=".143" stop-color="#f4d8bc"/><stop offset=".2984" stop-color="#f3d5b6"/><stop offset=".506" stop-color="#f1cba5"/><stop offset=".7421" stop-color="#edbc89"/><stop offset=".8103" stop-color="#ecb780"/></radialGradient><radialGradient id="SVGID_15_" cx="21.809" cy="17.504" gradientTransform="matrix(.986 .169 -.217 1.264 94.393 58.797)" gradientUnits="userSpaceOnUse" r="43.787"><stop offset=".3029" stop-color="#e49542"/><stop offset=".5126" stop-color="#e3913f"/><stop offset=".7094" stop-color="#df8634"/><stop offset=".9005" stop-color="#d97323"/><stop offset="1" stop-color="#d56617"/></radialGradient><linearGradient id="SVGID_16_" gradientTransform="matrix(1 0 0 1.039 0 63.109)" gradientUnits="userSpaceOnUse" x1="248.875" x2="242.638" y1="273.064" y2="241.89"><stop offset=".2584" stop-color="#e7a561"/><stop offset=".5534" stop-color="#e6a058"/><stop offset="1" stop-color="#e49542"/></linearGradient><linearGradient id="SVGID_17_" gradientUnits="userSpaceOnUse" x1="423.913" x2="401.17" y1="376.407" y2="288.177"><stop offset=".029" stop-color="#e7a561"/><stop offset=".2154" stop-color="#e7a35e"/><stop offset=".3642" stop-color="#e59c54"/><stop offset=".5" stop-color="#e49043"/><stop offset=".6273" stop-color="#e1802c"/><stop offset=".6937" stop-color="#df751c"/></linearGradient><linearGradient id="SVGID_18_" gradientUnits="userSpaceOnUse" x1="403.072" x2="408.14" y1="414.679" y2="294.312"><stop offset="0" stop-color="#efc89d"/><stop offset=".0334" stop-color="#eec293"/><stop offset=".1266" stop-color="#ebb57d"/><stop offset=".2283" stop-color="#e9ac6d"/><stop offset=".3443" stop-color="#e7a764"/><stop offset=".5053" stop-color="#e7a561"/><stop offset=".5607" stop-color="#e6a15c"/><stop offset=".6299" stop-color="#e5974c"/><stop offset=".7062" stop-color="#e28533"/><stop offset=".7611" stop-color="#df751c"/></linearGradient><radialGradient id="SVGID_19_" cx="343.162" cy="229.619" gradientTransform="matrix(.703 -.712 .549 .542 -23.942 349.375)" gradientUnits="userSpaceOnUse" r="117.601"><stop offset="0" stop-color="#efc89d"/><stop offset=".2182" stop-color="#edbd8a"/><stop offset=".3927" stop-color="#ecb780"/><stop offset=".7158" stop-color="#e8a45e"/><stop offset=".9491" stop-color="#e49542"/></radialGradient><radialGradient id="SVGID_20_" cx="316.558" cy="254.088" gradientTransform="matrix(.649 -.761 .616 .526 -45.379 361.326)" gradientUnits="userSpaceOnUse" r="126.224"><stop offset=".1103" stop-color="#fff9e2"/><stop offset=".2383" stop-color="#faeacd"/><stop offset=".4752" stop-color="#f2d1aa"/><stop offset=".6033" stop-color="#efc89d"/><stop offset=".9121" stop-color="#e49542"/></radialGradient><linearGradient id="lg2"><stop offset="0" stop-color="#ecb780"/><stop offset=".458" stop-color="#e9ae70"/><stop offset="1" stop-color="#e7a561"/></linearGradient><radialGradient id="SVGID_21_" cx="397.913" cy="401.831" gradientUnits="userSpaceOnUse" r="26.062" xlink:href="#lg2"/><linearGradient id="SVGID_22_" gradientUnits="userSpaceOnUse" x1="237.581" x2="243.142" y1="414.811" y2="282.732"><stop offset="0" stop-color="#efc89d"/><stop offset=".1098" stop-color="#ecba84"/><stop offset=".231" stop-color="#e9ae71"/><stop offset=".3536" stop-color="#e8a765"/><stop offset=".4786" stop-color="#e7a561"/><stop offset=".5741" stop-color="#e7a35e"/><stop offset=".6549" stop-color="#e59b53"/><stop offset=".7303" stop-color="#e38f42"/><stop offset=".8021" stop-color="#e17e29"/><stop offset=".8335" stop-color="#df751c"/></linearGradient><radialGradient id="SVGID_23_" cx="226.165" cy="403.683" gradientUnits="userSpaceOnUse" r="22.993" xlink:href="#lg2"/><radialGradient id="SVGID_24_" cx="220.675" cy="241.062" gradientTransform="matrix(.703 -.712 .776 .766 -121.356 213.428)" gradientUnits="userSpaceOnUse" r="98.882"><stop offset="0" stop-color="#efc89d"/><stop offset=".1536" stop-color="#eec496"/><stop offset=".3707" stop-color="#ecb984"/><stop offset=".6244" stop-color="#e8a866"/><stop offset=".6596" stop-color="#e7a561"/><stop offset=".795" stop-color="#e6a058"/><stop offset="1" stop-color="#e49542"/></radialGradient><radialGradient id="SVGID_25_" cx="164.453" cy="246.072" gradientTransform="matrix(1 0 0 .809 0 46.917)" gradientUnits="userSpaceOnUse" r="139.273"><stop offset=".2745" stop-color="#fbf4c6"/><stop offset=".3693" stop-color="#f7e5b5"/><stop offset=".5561" stop-color="#eebf89"/><stop offset=".5918" stop-color="#ecb780"/><stop offset=".6663" stop-color="#eab074"/><stop offset="1" stop-color="#e49542"/></radialGradient><radialGradient id="SVGID_26_" cx="3.056" cy="637.247" gradientTransform="matrix(.762 -.571 .647 .669 -411.622 -335.939)" gradientUnits="userSpaceOnUse" r="20.195"><stop offset="0" stop-color="#d0cee7"/><stop offset=".3128" stop-color="#a19dae"/><stop offset=".5922" stop-color="#756e78"/><stop offset="1" stop-color="#665e66"/></radialGradient><g><path d="m263.165 446.087c137.428 0 248.835-13.649 248.835-30.486h-497.67c0 16.837 111.407 30.486 248.835 30.486z" fill="url(#SVGID_1_)"/><path d="m398.818 166.984.538.164c31.51 9.586 53.047 38.649 53.047 71.585 0 18.363 14.886 33.249 33.249 33.249 12.302 0 22.274 9.98 22.273 22.281v2.252h-25.215c-32.11 0-58.14-26.03-58.14-58.14l-3.305-26.487z" fill="url(#SVGID_2_)"/><path d="m360.65 300.426-24.388 15.107 25.083 39.636v62.388h28.14v-70.997z" fill="url(#SVGID_3_)"/><path d="m331.985 188.932c-23.833.884-43.186 20.43-43.851 44.271-.289 10.332 2.873 19.908 8.4 27.684l-.013.004 39.741 54.643c9.815 13.495 27.03 19.399 43.061 14.767v-95.797c0-25.762-21.362-46.535-47.338-45.572z" fill="url(#SVGID_4_)"/><path d="m353.848 395.972h9.304c6.757 0 12.234 5.477 12.234 12.234v9.351h-33.772v-9.351c0-6.757 5.477-12.234 12.234-12.234z" fill="url(#SVGID_5_)"/><path d="m213.582 395.972-13.175 21.585h-13.339l-5.936-128.215h32.45z" fill="url(#SVGID_6_)"/><path d="m181.406 398.514h8.208c5.961 0 10.793 4.832 10.793 10.793v8.25h-29.795v-8.25c0-5.961 4.833-10.793 10.794-10.793z" fill="url(#SVGID_7_)"/><path d="m213.582 315.559v-76.433c0-17.617-14.281-31.898-31.898-31.898-17.617 0-31.898 14.281-31.898 31.898 0 24.505 13.073 47.148 34.295 59.4z" fill="url(#SVGID_8_)"/><path d="m373.641 155.7-83.271 7.285c-17.811 1.558-35.756-.012-53.026-4.639-20.597-5.519-39.379-16.362-54.457-31.44l-49.372-49.372-43.447 51.737 48.357 102.478c14.879 31.907 41.9 53.951 77.105 53.951 26.025 0 51.68-6.161 74.867-17.979l28.712-14.634c10.726-5.467 22.593-8.317 34.632-8.317h36.235c21.356 0 38.668-17.312 38.668-38.669.001-29.682-25.433-52.988-55.003-50.401z" fill="url(#SVGID_9_)"/><path d="m164.674 233.396-57.856-124.072-20.088 23.923 46.7 100.149c14.879 31.907 46.896 52.304 82.101 52.304 6.009 0 11.999-.329 17.943-.98-29.801-4.417-55.821-23.491-68.8-51.324z" fill="url(#SVGID_10_)"/><path d="m148.696 92.714-15.181-15.181-46.785 55.714 6.54 14.025h3.159c10.395 0 20.126-5.112 26.023-13.673l24.576-35.673c1.091-1.582 1.64-3.399 1.668-5.212z" fill="url(#SVGID_11_)"/><path d="m107.338 65.913s0 0-20.377 0c-11.098 0-21.878 3.703-30.634 10.521l-14.351 11.176h51.835z" fill="url(#SVGID_12_)"/><path d="m8.436 87.61c-5.246 0-9.219 4.739-8.304 9.905l1.903 10.741c3.303 18.641 19.506 32.224 38.437 32.224h20.377l32.962-52.87z" fill="url(#SVGID_13_)"/><path d="m115.66 126.807 24.576-35.673c2.588-3.756 2.125-8.825-1.1-12.051-8.433-8.433-19.871-13.171-31.798-13.171-11.098 0-21.878 3.703-30.634 10.521l-14.351 11.177h-33.54c-5.246 0-9.219 4.739-8.304 9.905l1.903 10.741c3.303 18.641 19.506 32.224 38.437 32.224h28.788c10.395 0 20.125-5.112 26.023-13.673z" fill="url(#SVGID_14_)"/><path d="m123.745 76.971-6.93-1.857c-4.62-1.238-9.238 1.995-9.654 6.76l-3.796 43.389c-1.071 12.236 14.749 17.994 21.795 7.933l17.744-25.341c2.629-3.755 2.845-8.694.553-12.664l-3.207-5.555c-3.605-6.244-9.542-10.8-16.505-12.665z" fill="url(#SVGID_15_)"/><path d="m263.338 395.972-13.174 21.585h-13.339l-5.936-128.215h32.647z" fill="url(#SVGID_16_)"/><path d="m410.605 300.426-24.389 15.107 25.083 39.636v62.388h28.141v-70.997z" fill="url(#SVGID_17_)"/><path d="m398.899 315.533 15.245-9.444-3.539-5.663-24.389 15.107 25.083 39.636v62.388h12.683v-62.388z" fill="url(#SVGID_18_)"/><path d="m381.939 188.932c-23.833.884-43.186 20.43-43.851 44.271-.289 10.332 2.873 19.908 8.4 27.684l-.013.004 39.741 54.643c9.815 13.495 27.03 19.399 43.061 14.767v-95.797c0-25.762-21.361-46.535-47.338-45.572z" fill="url(#SVGID_19_)"/><path d="m398.899 315.533-39.741-54.643.013-.004c-5.527-7.776-8.688-17.351-8.4-27.684.622-22.275 17.559-40.797 39.22-43.855-2.621-.363-5.308-.518-8.051-.416-23.833.884-43.186 20.43-43.851 44.271-.288 10.332 2.873 19.908 8.4 27.684l-.013.004 39.741 54.643c8.872 12.199 23.791 18.192 38.416 15.811-10.112-1.637-19.444-7.161-25.734-15.811z" fill="url(#SVGID_20_)"/><path d="m403.802 395.972h9.304c6.757 0 12.234 5.477 12.234 12.234v9.351h-33.772v-9.351c0-6.757 5.478-12.234 12.234-12.234z" fill="url(#SVGID_21_)"/><path d="m230.89 289.342 5.936 128.215h12.613l-5.936-128.215z" fill="url(#SVGID_22_)"/><path d="m231.36 398.514h8.208c5.961 0 10.793 4.832 10.793 10.793v8.25h-29.795v-8.25c.001-5.961 4.833-10.793 10.794-10.793z" fill="url(#SVGID_23_)"/><path d="m263.487 315.559.049-76.433c0-17.617-14.281-31.898-31.898-31.898-17.617 0-31.898 14.281-31.898 31.898 0 24.505 13.073 47.148 34.295 59.4z" fill="url(#SVGID_24_)"/><path d="m247.848 298.527c-21.222-12.252-34.295-34.896-34.295-59.401 0-15.245 10.695-27.992 24.992-31.148-2.224-.491-4.535-.75-6.906-.75-17.617 0-31.898 14.281-31.898 31.898 0 24.505 13.073 47.148 34.295 59.401l29.452 17.032.049-7.974z" fill="url(#SVGID_25_)"/><path d="m19.019 96.66c0 2.72-5.358 8.043-8.765 8.043s-8.764-5.324-8.764-8.043 3.924-4.924 8.765-4.924 8.764 2.204 8.764 4.924z" fill="url(#SVGID_26_)"/></g></svg>