<svg id="flat" height="512" viewBox="0 0 512 512" width="512" xmlns="http://www.w3.org/2000/svg"><path d="m440 152v-88h-7.86235a32 32 0 0 0 -30.76877 23.20892l-9.36888 32.79108v32z" fill="#ffb401"/><path d="m344 368-48 80h-40v-96h88z" fill="#ffd873"/><path d="m488 192a40.00182 40.00182 0 0 1 -40 40h-32a159.99424 159.99424 0 0 1 -160 160h-172l-20 56h-40v-96a136.001 136.001 0 0 1 136-136h104l63.33008-133.69995a32.00092 32.00092 0 0 1 28.91992-18.30005h11.75v56h31.02c.33 0 .65991 0 .98.02a42.21808 42.21808 0 0 1 40 31.98h8a40.01449 40.01449 0 0 1 40 40z" fill="#ffc431"/><path d="m488 192a40.00182 40.00182 0 0 1 -40 40h-32a159.99424 159.99424 0 0 1 -160 160h-160l-32 56h-40v-48a63.99807 63.99807 0 0 0 51.2-25.6001l28.8-38.3999h224v-107.92993a35.93515 35.93515 0 0 1 35.89-36.07007 36.11371 36.11371 0 0 0 36.11-36.10986v-35.87014a42.21808 42.21808 0 0 1 40 31.98h8a40.01449 40.01449 0 0 1 40 40z" fill="#ffe28f"/><path d="m240 264v16a62.5163 62.5163 0 0 0 36.31834 56.76227l67.68166 31.23773v24l32 40h24v-69.88179a75.96727 75.96727 0 0 0 -25.5022-56.78294l-46.4978-41.32427z" fill="#ffc431"/><circle cx="368" cy="152" fill="#b1712c" r="8"/><path d="m440 200a24.02718 24.02718 0 0 1 -24 24h-24v16h24a40.04552 40.04552 0 0 0 40-40z" fill="#ffd873"/><path d="m120 392 32 56h40v-56z" fill="#ffd873"/><path d="m344 384h11.15562a53.8962 53.8962 0 0 0 44.84438-24v72h-24l-32-40z" fill="#ffe28f"/><path d="m448 208a7.99967 7.99967 0 0 1 -7.15527-4.42188l-8-16a8 8 0 0 1 7.15527-11.57812h16a8 8 0 0 1 7.15527 11.57812l-8 16a7.99967 7.99967 0 0 1 -7.15527 4.42188z" fill="#b1712c"/></svg>