<svg width="60" height="46" viewBox="0 0 60 46" fill="none" xmlns="http://www.w3.org/2000/svg">
<path d="M54.0824 6.31847C53.7189 6.12276 53.2596 6.44941 53.5014 6.73406C55.5067 9.09543 59.2743 14.6855 52.742 17.7242L54.7984 20.6247C56.709 19.7198 60 17.5801 60 14.3478C60 11.6722 57.6714 8.25032 54.0824 6.31847Z" fill="#F58C46"/>
<path d="M56.4569 29.0248C55.6148 28.1434 55.1613 27.0817 55.1613 25.9919V21.8824C55.1613 18.4764 51.7707 15.6244 47.3183 15.2855L27.375 13.8437C26.2746 13.7641 25.2714 13.3303 24.6182 12.6516L23.7398 11.7389L23.6383 11.6868C24.0257 10.6816 23.8357 9.47703 23.2862 8.6082C22.3698 7.15928 19.0826 4.09625 15.7862 4.09625H13.1897C11.7105 4.09625 10.2872 4.52594 9.2101 5.29754L6.77413 7.04288L0.711549 8.33622C0.225573 8.43782 -0.0766539 8.80641 0.0169789 9.18338L0.383307 10.4936C0.54151 11.1308 1.22518 11.6019 2.05651 11.6776L2.26053 12.6441C2.3994 13.1883 2.91585 13.6274 3.61112 13.7925C5.03952 14.1317 7.64518 14.622 10.5217 14.5909C10.9903 14.5858 11.3862 14.8476 11.4095 15.2038C11.4753 16.2074 11.7062 17.7624 12.4297 19.526L13.4802 21.7388C14.2507 23.1567 15.3267 24.8229 16.7542 26.6558C21.2838 32.4721 21.2905 37.9817 21.2905 37.9817L18.4895 39.0477C17.8338 39.2973 17.4196 39.8075 17.4196 40.3655V40.9282C17.4196 41.335 17.8528 41.6648 18.3873 41.6648H23.3796C24.3866 41.6648 25.2254 41.0771 25.3085 40.3131L26.5628 28.7828C31.7273 29.8692 40.1962 29.1069 44.2789 27.6034C48.4363 32.0381 54.1937 32.9479 54.1937 32.9479V37.9816L50.5717 39.0844C49.8369 39.3081 49.355 39.8498 49.355 40.4522V40.9281C49.355 41.335 49.7883 41.6647 50.3228 41.6647H55.4271C56.3865 41.6647 57.2011 41.1298 57.3417 40.4073L58.9745 32.0179C59.0116 31.827 58.9489 31.6327 58.7999 31.4767L56.4569 29.0248Z" fill="#EBA34B"/>
<path d="M12.4296 19.526L13.4801 21.7388C14.2506 23.1567 15.3266 24.8229 16.754 26.6558C17.5033 27.6179 18.1187 28.5687 18.6409 29.4904C17.8802 27.0646 16.6924 24.2934 16.0282 22.6504C14.5766 19.0592 14.9803 15.0992 14.879 13.4423C14.7581 11.4626 11.6129 11.524 10.7258 11.7082L2.20639 12.388L2.26041 12.6439C2.39928 13.1881 2.91573 13.6272 3.611 13.7923C5.03928 14.1314 7.64506 14.6218 10.5215 14.5907C10.9902 14.5857 11.386 14.8474 11.4094 15.2036C11.4752 16.2075 11.7061 17.7624 12.4296 19.526Z" fill="#EBC9A0"/>
<path d="M23.2863 8.60821C22.6679 7.63055 20.9701 5.91786 18.9184 4.90729C17.4602 4.18903 15.5017 4.69338 14.9092 5.93615L14.8999 5.9556C14.6357 6.50981 14.7292 7.11095 15.067 7.64152C16.2769 9.54118 15.7675 13.2122 19.6573 13.5344C24.025 13.8963 24.4657 10.4728 23.2863 8.60821Z" fill="#F58C46"/>
<path d="M10.6546 8.51614C10.1202 8.51614 9.68216 8.18627 9.68216 7.77951C9.68216 7.37275 10.1107 7.04288 10.6452 7.04288H10.6547C11.1891 7.04288 11.6224 7.37275 11.6224 7.77951C11.6224 8.18627 11.1891 8.51614 10.6546 8.51614Z" fill="#4B3F4E"/>
<path d="M44.2787 27.6035C43.7683 26.9886 43.3714 26.3763 43.09 25.8907C42.7745 25.3461 42.0046 25.0425 41.2408 25.17C36.6798 25.9308 31.8817 25.4142 29.1403 24.9735C27.9349 24.7798 26.7921 25.4481 26.7277 26.3846L26.5626 28.7829C31.7271 29.8693 40.196 29.107 44.2787 27.6035Z" fill="#EBC9A0"/>
<path d="M10.0947 10.9167C8.52001 11.2375 5.70142 11.5055 2.05841 11.6867L2.26044 12.6441C2.30673 12.8255 2.40775 12.9883 2.53056 13.14C2.56759 13.1381 2.60275 13.1366 2.63978 13.1348C5.50407 12.984 8.64095 12.7376 10.5942 12.3398C11.1109 12.2347 11.4172 11.831 11.2792 11.4381C11.1413 11.0444 10.6097 10.8099 10.0947 10.9167Z" fill="#D99365"/>
<path d="M0.0169789 9.18338L0.324127 10.282C0.390573 10.2874 0.455612 10.2963 0.524284 10.2963C1.48182 10.2963 2.25807 9.74661 2.25807 9.06858C2.25807 8.69402 2.01608 8.36281 1.6426 8.13757L0.711549 8.33623C0.225573 8.43783 -0.0766539 8.80641 0.0169789 9.18338Z" fill="#4B3F4E"/>
<path d="M12.4467 20.2819C12.035 20.2777 11.6672 20.044 11.5768 19.7034C11.4716 19.3074 11.782 18.9163 12.2695 18.8295C12.3377 18.8177 19.1222 17.5681 24.8698 12.6996C25.216 12.4069 25.7887 12.3963 26.1492 12.6765C26.5097 12.9572 26.5213 13.4221 26.1755 13.7152C20.0269 18.9232 12.9484 20.2132 12.6501 20.2654C12.5821 20.2771 12.5139 20.2825 12.4467 20.2819Z" fill="#6E4848"/>
<path d="M12.0968 23.0033C11.2951 23.0033 10.6452 22.5086 10.6452 21.8984V21.1617C10.6452 20.5515 11.2951 20.0568 12.0968 20.0568C12.8985 20.0568 13.5484 20.5515 13.5484 21.1617V21.8984C13.5484 22.5086 12.8985 23.0033 12.0968 23.0033Z" fill="#F58C46"/>
</svg>
