<svg width="60" height="60" viewBox="0 0 60 60" fill="none" xmlns="http://www.w3.org/2000/svg">
<path d="M41.0526 24.8276L37.8947 28.9655L32.6316 31.0345L29.4737 33.1034L27.3684 31.0345V28.9655L30.5263 27.931L35.7895 24.8276L38.9474 18.6207L41.1142 23.716L41.0526 24.8276Z" fill="#FDC9A6"/>
<path d="M44.2105 38.2759L47.3684 47.5862L53.6842 55.8621L56.8421 50.6897L52.6316 45.5172L49.4737 33.1035L44.2105 38.2759Z" fill="#A8A8A8"/>
<path d="M33.6842 55.8621L31.5789 57.931V60H40V55.8621H33.6842Z" fill="#683B0D"/>
<path d="M49.4737 31.4425V30.0001H41.0526L33.6842 42.4138V55.862H40V43.4483L44.2105 39.3103L47.5342 36.044C48.1491 35.4397 48.6369 34.7223 48.9696 33.9328C49.3024 33.1433 49.4737 32.2971 49.4737 31.4425V31.4425Z" fill="#CBCBCB"/>
<path d="M26.3158 50.6896V54.8276L24.2105 60H28.421L30.5263 54.8276V51.4655L27.3684 47.5862L26.3158 50.6896Z" fill="#C38325"/>
<path d="M11.5789 49.6552L8.01382 52.2829C7.82859 52.4195 7.69432 52.6122 7.63181 52.8313C7.56929 53.0504 7.58203 53.2836 7.66803 53.4949L9.47369 57.9311L12.6316 56.8966L11.5789 53.7932L13.6842 51.7242L11.5789 49.6552Z" fill="#C38325"/>
<path d="M49.4737 30.0001V17.2553C49.4737 16.7965 49.3357 16.348 49.0771 15.966L46.3158 11.8875H41.0526L42.1053 13.9565L38.9779 18.1892C38.6428 18.6427 38.4227 19.1682 38.3357 19.7221C38.2488 20.276 38.2975 20.8423 38.4779 21.374C38.6268 21.813 38.8623 22.2189 39.1709 22.5685C39.4795 22.9181 39.8551 23.2045 40.2763 23.4114L41.0526 23.7931V30.0001H49.4737Z" fill="#FF6268"/>
<path d="M44.9912 19.6321L47.3684 25.862L47.0154 30.8766L45.7895 33.1034L47.9507 34.9921L50.5263 34.5258L51.5789 24.8275L49.178 18.1354C49.0794 17.8605 48.9259 17.6077 48.7265 17.3919C48.5272 17.1761 48.2859 17.0015 48.017 16.8785C47.7481 16.7555 47.4569 16.6865 47.1605 16.6756C46.8641 16.6647 46.5685 16.712 46.2909 16.8149C45.7388 17.0196 45.2919 17.4312 45.0482 17.9593C44.8046 18.4875 44.784 19.0891 44.9912 19.6321V19.6321Z" fill="#FDC9A6"/>
<path d="M53.6842 55.8621V58.9656H57.8947L60 53.7932L56.8421 50.6897L53.6842 55.8621Z" fill="#683B0D"/>
<path d="M40 4.64606V8.78392C40 9.05828 40.1109 9.3214 40.3083 9.5154C40.5057 9.7094 40.7735 9.81838 41.0526 9.81838H42.1053V11.8873H46.3158V9.81838L47.3684 6.71499H45.2632L44.2105 4.64606H40Z" fill="#FDC9A6"/>
<path d="M40 4.64609L39.5882 3.432C39.4041 2.88935 39.4068 2.30229 39.5957 1.76126C39.7846 1.22023 40.1493 0.755252 40.6336 0.437966C41.0694 0.152391 41.5815 0 42.1053 0C42.6291 0 43.1412 0.152391 43.577 0.437966L45.2632 1.54266H47.2071C47.5719 1.54266 47.9295 1.64248 48.2398 1.83095C48.5501 2.01942 48.8008 2.28908 48.964 2.60972C49.1188 2.91408 49.189 3.25327 49.1675 3.5929C49.146 3.93253 49.0335 4.26053 48.8415 4.54367L47.3684 6.71504H45.2632L44.2105 4.64609H40Z" fill="#683B0D"/>
<path d="M31.5789 41.3793C32.2116 40.7576 32.6555 39.9751 32.8611 39.1194C33.0666 38.2637 33.0257 37.3687 32.7428 36.5346L32.6316 36.2069L34.2332 36.6004C35.0137 36.7922 35.7228 37.1979 36.278 37.7701C36.8332 38.3424 37.2117 39.0578 37.3695 39.8332C37.5267 40.6059 37.4582 41.4065 37.1721 42.1427C36.8859 42.8788 36.3937 43.5203 35.7522 43.9932L33.6842 45.5172L31.5789 41.3793Z" fill="#C38325"/>
<path d="M5.26316 38.2759L3.15789 39.3104L2.10526 41.3793L0 42.4138L2.10526 46.5517L6.31579 45.5173L9.47368 46.5517L10.0042 48.6371C10.1659 49.2726 10.4787 49.8612 10.917 50.3546C11.3552 50.8481 11.9065 51.2322 12.5253 51.4755L15.7895 52.7586V54.8276L13.6842 60H17.8947L20 55.8621V52.7586L26.3158 50.6897L27.3684 47.5862L31.5789 52.7586L35.1316 54.8276L37.0226 60H40L38.9474 52.7586L35.7895 49.6552V47.5345C35.7895 46.5823 35.5715 45.6424 35.1519 44.7842C34.7322 43.926 34.1214 43.1716 33.3649 42.5767C31.5274 41.1321 29.2443 40.3449 26.8912 40.3448H24.9474C24.457 40.3449 23.9673 40.3791 23.4818 40.4473L19.2409 41.0421C17.6635 41.2635 16.0552 41.121 14.5436 40.6258L10.5263 39.3104L7.36842 35.1724L5.26316 38.2759Z" fill="#EA9D2D"/>
<path d="M29.1658 32.8009C29.1013 32.8642 14.4224 41.122 14.4224 41.122L10.35 47.1259C10.195 47.3543 9.95413 47.5129 9.68023 47.5667C9.40632 47.6205 9.12188 47.5652 8.88946 47.413C8.65705 47.2607 8.49571 47.0239 8.44093 46.7547C8.38615 46.4856 8.44242 46.206 8.59736 45.9776L12.8079 39.7707C12.8989 39.6372 13.02 39.5262 13.1618 39.4461L27.6487 31.3099L29.1658 32.8009Z" fill="#0292C9"/>
<path d="M6.3158 42.1552C6.82448 42.1552 7.23685 41.7499 7.23685 41.25C7.23685 40.7501 6.82448 40.3448 6.3158 40.3448C5.80711 40.3448 5.39474 40.7501 5.39474 41.25C5.39474 41.7499 5.80711 42.1552 6.3158 42.1552Z" fill="#C38325"/>
</svg>
