<svg id="Capa_1" enable-background="new 0 0 512 512" height="512" viewBox="0 0 512 512" width="512" xmlns="http://www.w3.org/2000/svg"><g><g><path d="m200.146 163.553 27.741-19.142-39.115-92.611c-12.739-31.472-42.892-51.8-76.856-51.8h-10.753l-10.186 30.041z" fill="#373c41"/><path d="m70.274 213.066 21.72 25.113 108.152-74.626-34.529-81.752c-12.461-30.786-41.586-50.896-74.64-51.76l-35.899 105.876c-8.987 26.506-3.151 56.083 15.196 77.149z" fill="#f7f0eb"/></g><g><path d="m311.854 163.553-27.741-19.142 39.115-92.611c12.739-31.472 42.892-51.8 76.856-51.8h10.753l10.186 30.041z" fill="#292d31"/><path d="m441.726 213.066-21.72 25.113-108.152-74.626 34.529-81.752c12.461-30.786 41.586-50.896 74.64-51.76l35.899 105.876c8.987 26.506 3.151 56.083-15.196 77.149z" fill="#f7f0eb"/></g><g><path d="m468.629 303.299-33.834-80.914-.033-.069c-16.36-36.273-50.711-83.316-178.762-83.316l-10.667 181 10.667 138.667 97.149 21.108 72.458 31.726 23.11-32.273c17.999-25.135 29.351-54.658 32.828-85.376s-.989-62.031-12.916-90.553z" fill="#ebe1dc"/><path d="m77.349 222.071-.019.012-33.96 81.217c-11.926 28.522-16.392 59.834-12.916 90.553 3.477 30.719 14.829 60.241 32.828 85.376l23.11 32.273 72.458-31.726 97.15-21.109v-319.667c-128.051 0-162.241 46.946-178.651 83.071z" fill="#f7f0eb"/></g><path d="m153.14 256h30v30h-30z" fill="#292d31"/><path d="m328.86 256h30v30h-30z" fill="#151719"/><g><path d="m333.483 319.109c-5.557-4.158-11.039-8.337-16.11-12.321-38.57-30.303-61.373-76.405-61.373-125.455l-10.667 202.667 10.667 88.75 2.181 4.145c11.099 21.66 33.382 35.228 57.652 35.105 34.944-.177 63.94-27.163 66.744-62.117l.07-32.674c0-38.624-18.239-74.961-49.164-98.1z" fill="#dcd2cd"/><path d="m256 181.333c0 49.049-22.803 95.152-61.372 125.454-5.071 3.984-10.553 8.163-16.11 12.321-30.925 23.139-49.164 59.477-49.164 98.1l.07 32.674c2.804 34.954 31.8 61.94 66.744 62.117 24.27.123 46.553-13.445 57.652-35.105l2.18-4.144z" fill="#ebe1dc"/></g><g><path d="m266.555 374.114h-10.555l-9.007 36.776 9.007 44.611 28.352-17.136c10.419-6.251 16.794-17.51 16.794-29.661-.001-19.103-15.487-34.59-34.591-34.59z" fill="#292d31"/><path d="m245.444 374.114c-19.104 0-34.59 15.486-34.59 34.59 0 12.15 6.375 23.409 16.794 29.661l28.352 17.136v-81.387z" fill="#373c41"/></g><g><path d="m430.712 212.622-.822-1.224c-.031-.046-.063-.092-.092-.139-15.202-28.849-37.586-53.699-64.733-71.864-27.805-18.605-60.134-29.825-93.493-32.445l-.587-.046h-14.985l-10.667 42.429 10.667 61.61c17.854-28.979 49.877-48.34 86.341-48.34 39.783 0 76.061 23.439 92.421 59.713l.033.069z" fill="#a0a0a5"/><path d="m241.604 106.904-1.175.046c-33.359 2.62-65.689 13.84-93.494 32.445-27.17 18.18-49.566 43.054-64.766 71.926-.035.067-.123.224-.32.531l-.699 1.094-3.821 9.137.019-.012c16.41-36.125 52.643-59.467 92.309-59.467 36.464 0 68.487 19.361 86.342 48.339v-104.04h-14.395z" fill="#b9b9be"/></g></g></svg>