<svg xmlns="http://www.w3.org/2000/svg" viewBox="0 0 382.74 386.07"><defs><style>.cls-1{fill:#c69c7f;}.cls-2{fill:#936037;}.cls-3{fill:#393531;}</style></defs><g id="Calque_2" data-name="Calque 2"><g id="Calque_2-2" data-name="Calque 2"><path class="cls-1" d="M309.24,340C293.92,248.38,257,208.78,204.1,198.41a62.57,62.57,0,0,0-25.46,0C119.44,210.94,86.05,242.77,70.49,340c-1.08,6.79-1,13.61,1.24,20,6.65,18.74,33.57,29.28,53,25.19L176,371.05a98,98,0,0,1,30.67,0l38.44,13.38c19,4.43,46.12-2.61,57.58-18.43C308.49,358,310.74,348.92,309.24,340Z"/><ellipse class="cls-1" cx="48.86" cy="179.99" rx="45.76" ry="69.13" transform="translate(-56.69 26.23) rotate(-19.28)"/><ellipse class="cls-1" cx="333.88" cy="179.99" rx="69.13" ry="45.76" transform="translate(53.73 435.7) rotate(-70.72)"/><ellipse class="cls-1" cx="129.48" cy="76.02" rx="49.68" ry="77.02" transform="translate(-13.13 29.05) rotate(-12.19)"/><ellipse class="cls-1" cx="251.26" cy="76.02" rx="77.02" ry="49.68" transform="translate(123.92 305.57) rotate(-77.81)"/><path class="cls-2" d="M160.86,251.33a1.79,1.79,0,0,0-.37-2.76c-2.38-1.46-6.76-3.31-11.15-.87-6.48,3.6-37.79,24.1-37.8,37.44,0,18.36,12.6,31.68,18.32,51.12,1.94,6.6,15.64-13.76,13-44.52C141.35,273.66,156.12,256.38,160.86,251.33Z"/><path class="cls-2" d="M220.63,251.33a1.79,1.79,0,0,1,.37-2.76c2.38-1.46,6.77-3.31,11.16-.87,6.48,3.6,37.79,24.1,37.8,37.44,0,18.36-12.6,31.68-18.32,51.12-1.95,6.6-15.64-13.76-13-44.52C240.15,273.66,225.37,256.38,220.63,251.33Z"/><ellipse class="cls-3" cx="166.08" cy="299.29" rx="8.82" ry="4.86"/><ellipse class="cls-3" cx="215.42" cy="299.29" rx="8.82" ry="4.86"/><ellipse class="cls-3" cx="190.75" cy="342.82" rx="11.67" ry="7.84"/></g></g></svg>